<svg viewBox="0 0 24 24" xmlns="http://www.w3.org/2000/svg">
<path fill-rule="evenodd" clip-rule="evenodd" d="M19.111 21H5.89A1.889 1.889 0 0 1 4 19.111V5.89C4 4.846 4.846 4 5.889 4H19.11C20.154 4 21 4.846 21 5.889V19.11A1.889 1.889 0 0 1 19.111 21Zm-2.995-2.36h2.523v-5.183c0-2.193-1.243-3.253-2.98-3.253-1.736 0-2.467 1.352-2.467 1.352v-1.102H10.76v8.185h2.432v-4.297c0-1.15.53-1.836 1.544-1.836.932 0 1.38.658 1.38 1.836v4.297ZM6.361 7.871c0 .834.67 1.51 1.499 1.51.828 0 1.499-.676 1.499-1.51s-.67-1.51-1.499-1.51c-.828 0-1.5.676-1.5 1.51ZM9.14 18.639H6.605v-8.185H9.14v8.185Z" fill="#000"/>
</svg>