<svg viewBox="0 0 24 24" xmlns="http://www.w3.org/2000/svg">
<path fill="#000" d="M21.5821 7.18612C21.3521 6.32563 20.6744 5.64793 19.8139 5.41791C18.2542 5 12 5 12 5C12 5 5.74583 5 4.18613 5.41791C3.32563 5.64793 2.64793 6.32563 2.41791 7.18612C2 8.74582 2 12 2 12C2 12 2 15.2542 2.41791 16.8139C2.64793 17.6744 3.32563 18.3521 4.18613 18.5821C5.74583 19 12 19 12 19C12 19 18.2542 19 19.8139 18.5821C20.6744 18.3521 21.3521 17.6744 21.5821 16.8139C22 15.2542 22 12 22 12C22 12 22 8.74582 21.5821 7.18612ZM10 15V9L15.1959 12.0001L10 15Z"/>
</svg>
