<svg viewBox="0 0 25 25" xmlns="http://www.w3.org/2000/svg">
<path fill="#000" d="M19.0742 4.85352H18.0742V2.85352H16.0742V4.85352H8.07422V2.85352H6.07422V4.85352H5.07422C3.96422 4.85352 3.07422 5.75352 3.07422 6.85352V20.8535C3.07422 21.9535 3.96422 22.8535 5.07422 22.8535H19.0742C20.1742 22.8535 21.0742 21.9535 21.0742 20.8535V6.85352C21.0742 5.75352 20.1742 4.85352 19.0742 4.85352ZM19.0742 20.8535H5.07422V9.85352H19.0742V20.8535ZM6.57422 13.8535C6.57422 12.4735 7.69422 11.3535 9.07422 11.3535C10.4542 11.3535 11.5742 12.4735 11.5742 13.8535C11.5742 15.2335 10.4542 16.3535 9.07422 16.3535C7.69422 16.3535 6.57422 15.2335 6.57422 13.8535Z"/>
</svg>
