<svg viewBox="0 0 25 25" xmlns="http://www.w3.org/2000/svg">
<path fill="#000" d="M12.0722 3.85352H6.43087L3.07422 7.2132V12.8596L12.0722 3.85352ZM14.3018 3.85352L3.07422 15.0913V19.8535C3.07422 20.1157 3.12465 20.366 3.21635 20.5954L19.8054 3.99139C19.5789 3.90239 19.3323 3.85352 19.0742 3.85352H14.3018ZM20.932 5.11149L4.33149 21.7111C4.56112 21.803 4.81177 21.8535 5.07422 21.8535H9.83036L21.058 10.6158V12.8474L12.06 21.8535H17.7013L21.058 18.4938V19.9395C21.058 20.0404 21.0514 20.1383 21.0382 20.2334C21.0618 20.1104 21.0742 19.9834 21.0742 19.8535V5.85352C21.0742 5.59133 21.0238 5.34093 20.932 5.11149Z"/>
</svg>
