<svg viewBox="0 0 25 25" xmlns="http://www.w3.org/2000/svg">
<path fill="#000" d="M4.18903 21.8535C3.93542 21.7897 3.70215 21.6512 3.48922 21.4381C3.27631 21.225 3.13797 20.9915 3.07422 20.7377L19.9431 3.85352C20.2185 3.92818 20.4544 4.06664 20.6511 4.26889C20.8477 4.47116 20.9888 4.70464 21.0742 4.96933L4.18903 21.8535ZM3.07422 15.0913V12.8596L12.0722 3.85352H14.3018L3.07422 15.0913ZM3.07422 7.2132V5.76756C3.07422 5.23271 3.25935 4.77999 3.6296 4.4094C3.99985 4.03881 4.45216 3.85352 4.98653 3.85352H6.43087L3.07422 7.2132ZM17.7013 21.8535L21.058 18.4938V19.9395C21.058 20.4743 20.8728 20.927 20.5026 21.2976C20.1323 21.6682 19.68 21.8535 19.1456 21.8535H17.7013ZM9.83036 21.8535L21.058 10.6158V12.8474L12.06 21.8535H9.83036Z"/>
</svg>
