<svg viewBox="0 0 24 24" xmlns="http://www.w3.org/2000/svg">
<path fill="#000" d="M13.7016 2.79963C16.2016 2.89963 18.5016 4.09963 20.1016 5.89963C23.5016 9.69963 23.1016 15.5996 19.2016 18.8996C17.5016 20.3996 15.4016 21.1996 13.1016 21.1996C10.5016 21.1996 8.00156 20.0996 6.20156 18.0996L6.00156 17.8996L7.50156 16.5996L7.70156 16.7996C10.3016 19.7996 14.9016 19.9996 17.9016 17.3996C20.9016 14.7996 21.1016 10.1996 18.5016 7.19963C15.9016 4.19963 11.3016 3.99963 8.30156 6.59963C6.90156 7.79963 6.10156 9.49963 5.90156 11.3996L7.80156 9.49963L9.30156 10.8996L4.90156 15.1996L0.601562 10.8996L2.00156 9.49963L3.90156 11.3996C4.10156 8.99963 5.20156 6.69963 7.00156 5.09963C8.90156 3.39963 11.2016 2.59963 13.7016 2.79963ZM11.7031 12.7993V7.29932H13.7031V11.9993L17.1031 15.2993L15.7031 16.6993L11.7031 12.7993Z"/>
</svg>
