<svg viewBox="0 0 24 24" xmlns="http://www.w3.org/2000/svg">
<path fill="#000" d="M14 4.625C14 5.72957 13.1046 6.625 12 6.625C10.8954 6.625 10 5.72957 10 4.625C10 3.52043 10.8954 2.625 12 2.625C13.1046 2.625 14 3.52043 14 4.625Z"/>
<path fill="#000" d="M14 12C14 13.1046 13.1046 14 12 14C10.8954 14 10 13.1046 10 12C10 10.8954 10.8954 10 12 10C13.1046 10 14 10.8954 14 12Z"/>
<path fill="#000" d="M14 19.375C14 20.4796 13.1046 21.375 12 21.375C10.8954 21.375 10 20.4796 10 19.375C10 18.2704 10.8954 17.375 12 17.375C13.1046 17.375 14 18.2704 14 19.375Z"/>
</svg>
