<svg viewBox="0 0 24 24" xmlns="http://www.w3.org/2000/svg">
<path fill="#000" d="M4.81752 10.5871C5.20428 10.2003 5.68427 10 6.23042 10C6.77658 10 7.25658 10.2003 7.64333 10.5871C8.03009 10.9738 8.23039 11.4538 8.23039 12C8.23039 12.5461 8.03009 13.0261 7.64333 13.4129C7.25658 13.7996 6.77658 14 6.23042 14C5.68427 14 5.20428 13.7996 4.81752 13.4129C4.43077 13.0261 4.23047 12.5461 4.23047 12C4.23047 11.4538 4.43077 10.9738 4.81752 10.5871ZM10.5867 10.5871C10.9735 10.2003 11.4535 10 11.9996 10C12.5458 10 13.0258 10.2003 13.4125 10.5871C13.7993 10.9738 13.9996 11.4538 13.9996 12C13.9996 12.5461 13.7993 13.0261 13.4125 13.4129C13.0258 13.7996 12.5458 14 11.9996 14C11.4535 14 10.9735 13.7996 10.5867 13.4129C10.2 13.0261 9.99967 12.5461 9.99967 12C9.99967 11.4538 10.2 10.9738 10.5867 10.5871ZM16.356 10.5871C16.7427 10.2003 17.2227 10 17.7689 10C18.315 10 18.795 10.2003 19.1818 10.5871C19.5685 10.9738 19.7688 11.4538 19.7688 12C19.7688 12.5461 19.5685 13.0261 19.1818 13.4129C18.795 13.7996 18.315 14 17.7689 14C17.2227 14 16.7427 13.7997 16.356 13.4129C15.9692 13.0261 15.7689 12.5461 15.7689 12C15.7689 11.4538 15.9692 10.9738 16.356 10.5871Z"/>
</svg>
