<svg viewBox="0 0 24 24" xmlns="http://www.w3.org/2000/svg">
<path fill="#000" d="M7 5.25C6.0335 5.25 5.25 6.0335 5.25 7V17C5.25 17.9665 6.0335 18.75 7 18.75H9C9.9665 18.75 10.75 17.9665 10.75 17V7C10.75 6.0335 9.9665 5.25 9 5.25H7ZM6.75 7C6.75 6.86193 6.86193 6.75 7 6.75H9C9.13807 6.75 9.25 6.86193 9.25 7V17C9.25 17.1381 9.13807 17.25 9 17.25H7C6.86193 17.25 6.75 17.1381 6.75 17V7Z"/>
<path fill="#000" d="M15 5.25C14.0335 5.25 13.25 6.0335 13.25 7V17C13.25 17.9665 14.0335 18.75 15 18.75H17C17.9665 18.75 18.75 17.9665 18.75 17V7C18.75 6.0335 17.9665 5.25 17 5.25H15ZM14.75 7C14.75 6.86193 14.8619 6.75 15 6.75H17C17.1381 6.75 17.25 6.86193 17.25 7V17C17.25 17.1381 17.1381 17.25 17 17.25H15C14.8619 17.25 14.75 17.1381 14.75 17V7Z"/>
</svg>
