<svg viewBox="0 0 25 24" xmlns="http://www.w3.org/2000/svg">

<path fill="#000" d="M2.76172 7.5H4.26172V4H7.76172V2.5H2.76172V7.5ZM2.76172 21.5H7.76172V20H4.26172V16.5H2.76172V21.5ZM21.7617 21.5H16.7617V20H20.2617V16.5H21.7617V21.5ZM20.2617 7.5H21.7617V2.5H16.7617V4H20.2617V7.5ZM9.76172 7.5V9.5H7.76172V7.5H9.76172ZM11.2617 6H6.26172V11H11.2617V6ZM16.7617 9.5V7.5H14.7617V9.5H16.7617ZM13.2617 6H18.2617V11H13.2617V6ZM9.76172 14.5V16.5H7.76172V14.5H9.76172ZM11.2617 13H6.26172V18H11.2617V13ZM13.2617 13H18.2617V18H13.2617V13Z"/>
</svg>