<svg viewBox="0 0 25 24" xmlns="http://www.w3.org/2000/svg">
<path fill="#000" d="M6.89531 2H17.3953C18.3953 2 19.1953 2.8 19.2953 3.8V20.3C19.2953 21.3 18.4953 22.1 17.4953 22.1H6.99531C5.99531 22.1 5.19531 21.3 5.19531 20.3V3.8C5.19531 2.8 5.99531 2 6.89531 2ZM12.1953 20.7C12.3953 20.7 12.5953 20.6 12.7953 20.5C13.0953 20.3 13.1953 20.1 13.1953 19.7C13.1953 19.1 12.7953 18.7 12.1953 18.7C11.5953 18.7 11.1953 19.1 11.1953 19.7C11.1953 20.1 11.3953 20.3 11.5953 20.5C11.6953 20.6 11.9953 20.7 12.1953 20.7ZM6.69531 17.5H17.6953V4H6.69531V17.5ZM7.69531 5H16.6953V16.5H7.69531V5Z"/>
</svg>
