<svg viewBox="0 0 25 25" xmlns="http://www.w3.org/2000/svg">
<path fill="#000" d="M19.3906 4.92383H2.39062V19.9238H22.3906V7.92383C21.1906 6.72383 20.5906 6.12383 19.3906 4.92383ZM11.8906 8.52383H16.8906V9.82383H11.8906V8.52383ZM7.79063 8.52383C8.79063 8.52383 9.59062 9.32383 9.59062 10.4238C9.59062 11.4238 8.79063 12.2238 7.79063 12.2238C6.79063 12.2238 5.89062 11.4238 5.89062 10.4238C5.89062 9.32383 6.69063 8.52383 7.79063 8.52383ZM18.4906 16.3238H5.89062V15.0238H18.4906V16.3238ZM18.4906 13.0238H11.8906V11.7238H18.4906V13.0238ZM18.3906 8.92383V6.42383L20.8906 8.92383H18.3906Z"/>
</svg>
