<svg width="720" height="148" viewBox="0 0 720 148" fill="none" xmlns="http://www.w3.org/2000/svg">
<g clip-path="url(#clip0_720_2002)">
<path d="M158.544 3.53463V32.0899H153.755V3.53463H158.544ZM165.017 11.1451H169.4C169.484 12.0698 169.521 13.4383 169.521 14.5388H169.604C170.211 13.3505 171.14 12.3565 172.284 11.6699C173.428 10.9833 174.742 10.6317 176.077 10.655C181.477 10.655 183.363 14.3538 183.363 19.9854V32.0899H178.832V21.8625C178.832 17.6088 178.545 14.4648 174.819 14.4648C173.918 14.5123 173.047 14.8031 172.298 15.3062C171.549 15.8094 170.95 16.506 170.565 17.3222C169.859 18.9007 169.541 20.6259 169.641 22.3526V32.0899H165.184V17.4886C165.211 15.3618 165.211 13.1517 165.045 11.1451H165.017ZM188.088 31.4889L188.375 27.605C189.919 28.4925 191.661 28.979 193.442 29.0198C195.412 29.0198 197.002 28.0951 197.002 26.4399C197.002 24.7846 196.078 24.1836 192.952 22.8335C189.318 21.28 187.968 19.7727 187.968 16.906C187.968 13.0222 190.992 10.6457 195.449 10.6457C197.153 10.6126 198.847 10.9045 200.442 11.5057L200.035 15.2046C198.654 14.4954 197.122 14.1306 195.569 14.1411C193.775 14.1411 192.379 15.0011 192.379 16.5546C192.379 18.1082 193.368 18.7277 196.078 19.7912C199.721 21.2615 201.478 22.8982 201.478 26.0885C201.478 30.3422 198.241 32.5615 193.701 32.5615C191.789 32.5847 189.891 32.2296 188.116 31.5166L188.088 31.4889ZM207.507 25.1083V14.7515H203.808V11.1913H207.571V6.52148L211.862 5.05115V11.1913H216.976V14.7515H211.862V23.8692C211.862 27.2259 212.398 28.7794 215.015 28.7794C215.731 28.7757 216.44 28.6377 217.105 28.3725L217.225 32.0159C216.158 32.3702 215.04 32.5483 213.915 32.543C209.014 32.543 207.498 29.8428 207.498 25.136L207.507 25.1083ZM226.324 2.44347V7.2335H221.544V2.44347H226.324ZM226.204 11.1173V32.0622H221.664V11.1451L226.204 11.1173ZM234.018 25.1083V14.7515H230.319V11.1913H234.082V6.52148L238.382 5.05115V11.1913H243.496V14.7515H238.382V23.8692C238.382 27.2259 238.909 28.7794 241.526 28.7794C242.242 28.7766 242.951 28.6385 243.616 28.3725L243.736 32.0159C242.669 32.3717 241.551 32.5497 240.426 32.543C235.516 32.543 234.008 29.8428 234.008 25.136L234.018 25.1083ZM247.888 24.2946V11.1451H252.345V21.7423C252.345 26.0792 252.918 28.7424 256.395 28.7424C259.465 28.7424 261.472 25.5522 261.472 21.7793V11.1451H265.966V25.4227C265.966 28.0396 266.049 30.3329 266.215 32.0899H261.869C261.721 30.9928 261.653 29.8864 261.666 28.7794H261.583C260.556 30.9432 258.346 32.58 254.832 32.58C250.57 32.58 247.832 29.473 247.832 24.3223L247.888 24.2946ZM273.659 25.1083V14.7515H269.96V11.1913H273.724V6.52148L278.014 5.05115V11.1913H283.137V14.7515H278.014V23.8692C278.014 27.2259 278.551 28.7794 281.167 28.7794C281.883 28.7757 282.592 28.6377 283.257 28.3725L283.378 32.0159C282.31 32.3702 281.192 32.5483 280.067 32.543C275.111 32.543 273.604 29.8428 273.604 25.136L273.659 25.1083ZM286.29 21.4741C286.29 15.0011 290.22 10.6272 296.027 10.6272C301.575 10.6272 304.747 14.1042 304.747 21.5481C304.743 22.0147 304.715 22.4807 304.664 22.9444H290.821C290.941 26.5786 293.475 28.8349 297.294 28.8349C299.355 28.8697 301.382 28.3146 303.138 27.2351L303.305 31.2854C301.283 32.1811 299.088 32.6139 296.878 32.5523C290.248 32.58 286.235 28.4558 286.235 21.5019L286.29 21.4741ZM295.907 14.0209C293.244 14.0209 291.163 15.8241 290.877 19.5692H300.281C300.225 15.8149 298.468 14.0487 295.852 14.0487L295.907 14.0209ZM317.933 21.6221C317.933 15.0751 322.233 10.655 328.373 10.655C334.513 10.655 338.803 15.0751 338.803 21.6221C338.803 28.1691 334.504 32.58 328.373 32.58C322.242 32.58 317.933 28.1691 317.933 21.6221ZM334.05 21.6221C334.05 17.1557 331.84 14.3353 328.373 14.3353C324.905 14.3353 322.677 17.1557 322.677 21.6221C322.677 26.0885 324.887 28.8996 328.373 28.8996C331.859 28.8996 334.05 26.0792 334.05 21.6221ZM341.374 14.7515V11.1913H345.794V9.4713C345.794 4.07095 347.717 1.00091 352.701 1.00091C353.709 0.987992 354.714 1.11243 355.688 1.37079L355.318 5.06966C354.665 4.82594 353.972 4.7037 353.275 4.70901C351.028 4.70901 350.251 6.0591 350.251 9.3326V11.182H355.402V14.7422H350.251V32.0807H345.794V14.7515H341.374ZM182.901 56.0308L182.032 65.0838C178.531 63.5509 174.757 62.7425 170.935 62.7073C165.137 62.7073 161.485 65.167 161.485 68.9769C161.485 72.3983 163.334 74.5252 171.333 77.4843C181.431 81.1369 185.712 85.9085 185.712 94.1292C185.712 104.93 178.092 111.449 165.221 111.449C160.272 111.485 155.353 110.679 150.675 109.063L151.757 99.2984C155.743 101.343 160.15 102.432 164.629 102.479C170.75 102.479 174.56 100.01 174.56 95.5625C174.56 91.3551 172.258 89.0895 164.074 86.0287C154.374 82.4593 150.25 78.0021 150.25 70.142C150.25 60.2845 158.11 54.0889 169.668 54.0889C174.157 53.9845 178.631 54.641 182.901 56.0308ZM232.279 99.5666L232.594 109.184C228.816 110.49 224.837 111.116 220.841 111.033C204.196 111.033 193.905 100.704 193.905 82.7459C193.905 64.7879 204.233 54.4588 220.203 54.4588C224.734 54.4588 228.229 54.7732 232.279 56.3638L231.641 65.9808C228.373 64.2331 224.701 63.3813 220.998 63.5118C211.751 63.5118 205.741 69.393 205.741 82.4315C205.741 95.4701 212.093 101.73 221.072 101.73C224.921 101.833 228.745 101.095 232.279 99.5666ZM254.37 54.9952V110.478H243.274V54.9952H254.37ZM267.713 110.478V54.9952H299.254V64.2423H278.643V77.512H298.191V86.6483H278.643V101.148H299.698V110.45L267.713 110.478ZM342.881 98.6326L342.4 55.0136H352.489V110.497H338.387L320.356 66.6374H320.199L320.67 110.497H310.665V55.0136H324.887L342.761 98.6326H342.881ZM401.192 99.5573L401.516 109.174C397.735 110.481 393.753 111.108 389.754 111.024C373.109 111.024 362.818 100.695 362.818 82.7367C362.818 64.7787 373.146 54.4496 389.116 54.4496C393.647 54.4496 397.142 54.764 401.192 56.3545L400.573 66.0086C397.301 64.2618 393.626 63.41 389.92 63.5395C380.673 63.5395 374.663 69.4208 374.663 82.4593C374.663 95.4978 381.025 101.758 390.003 101.758C393.836 101.844 397.641 101.097 401.155 99.5666L401.192 99.5573ZM412.159 110.45V54.9674H443.663V64.2146H423.089V77.4843H442.627V86.6205H423.089V101.148H444.144V110.45H412.159ZM507.578 54.9674V64.4273L492.403 64.3441V110.432H481.122V64.3718L465.948 64.455V54.9952L507.578 54.9674ZM563.91 82.7089C563.91 100.981 553.821 111.375 537.935 111.375C522.049 111.375 511.868 100.963 511.868 82.7089C511.868 64.455 521.957 54.0427 537.935 54.0427C553.914 54.0427 563.873 64.455 563.873 82.7274L563.91 82.7089ZM523.787 82.7089C523.787 96.3763 529.336 102.729 537.935 102.729C546.535 102.729 552.074 96.3763 552.074 82.7089C552.074 69.0416 546.526 62.6888 537.935 62.6888C529.345 62.6888 523.75 69.0601 523.75 82.7274L523.787 82.7089ZM585.52 83.5042V110.441H574.423V54.9582H585.52V79.269H585.677L602.053 54.9582H614.999L596.089 80.8503L619.373 110.441H605.345L585.64 83.5042H585.52ZM617.699 54.9767H630.099L641.537 78.4922H641.695L653.457 54.9767H665.478L647.122 88.433V110.441H636.026V88.6087L617.699 54.9767ZM720.034 82.7182C720.034 100.991 709.946 111.384 694.06 111.384C678.174 111.384 667.993 100.972 667.993 82.7182C667.993 64.4643 678.081 54.052 694.06 54.052C710.038 54.052 719.997 64.455 719.997 82.7274L720.034 82.7182ZM679.912 82.7182C679.912 96.3855 685.46 102.738 694.06 102.738C702.659 102.738 708.198 96.3855 708.198 82.7182C708.198 69.0509 702.65 62.6981 694.06 62.6981C685.469 62.6981 679.875 69.0601 679.875 82.7274L679.912 82.7182Z" fill="#1C3177"/>
<path d="M104.157 3.53125C59.7719 3.53125 22.7843 16.3663 2.02507 33.751C1.39301 34.2571 0.882821 34.8988 0.532286 35.6287C0.181752 36.3586 -0.000159528 37.158 1.04971e-07 37.9677V70.0462C1.04971e-07 69.3711 0.508573 68.8625 1.52573 68.0211C30.0524 45.0603 67.1787 38.1434 104.166 38.1434L104.157 3.53125Z" fill="#1C3177"/>
<path d="M104.157 108.468V76.2969C104.157 77.1384 102.64 77.4713 100.273 77.647C61.9542 80.005 25.3272 91.8229 0 109.892V147.704C23.5518 131.447 57.7653 117.521 90.2127 112.925L99.5335 111.566C100.736 111.381 103.232 111.112 103.963 109.531C104.095 109.193 104.161 108.831 104.157 108.468Z" fill="#1C3177"/>
<path d="M104.157 76.297C104.157 75.4463 103.316 74.6048 101.965 73.5876C84.3224 61.2888 62.2038 52.578 36.7286 48.5C23.9931 53.0099 12.0965 59.6068 1.52573 68.0208C0.508573 68.8623 0 69.3709 0 70.0459C0 70.721 0.342137 70.8874 1.69218 71.0631C20.185 73.0356 38.2888 77.7089 55.4259 84.9339C70.0981 81.0382 85.121 78.6097 100.273 77.6841C102.64 77.4714 104.157 77.1015 104.157 76.297Z" fill="#7F96C2"/>
</g>
<defs>
<clipPath id="clip0_720_2002">
<rect width="720" height="148" fill="white"/>
</clipPath>
</defs>
</svg>
