<?xml version="1.0" encoding="UTF-8"?><!DOCTYPE svg PUBLIC "-//W3C//DTD SVG 1.1//EN" "http://www.w3.org/Graphics/SVG/1.1/DTD/svg11.dtd"><svg xmlns="http://www.w3.org/2000/svg" xmlns:xlink="http://www.w3.org/1999/xlink">
  <symbol viewBox="0 0 25 24" id="folder-fill">
    <path d="M10.2523 4L12.2523 6H22.6523V10.5H2.65234V4H10.2523ZM2.65234 12H22.6523V21H2.65234V12Z"/>
  </symbol>
  <symbol viewBox="0 0 24 24" id="arrow_down-fill">
    <path d="m13.251 15.482 5.366-5.366 1.768 1.768-8.384 8.384-8.384-8.384 1.768-1.768 5.366 5.366V4h2.5v11.482Z"/>
  </symbol>
  <symbol viewBox="0 0 24 24" id="search">
    <path d="M9.5 2C5.35786 2 2 5.35786 2 9.5C2 13.6421 5.35786 17 9.5 17C11.0821 17 12.5498 16.5101 13.7597 15.6738L19.793 21.7071L21.2072 20.2928L15.2408 14.3265C16.3386 13.0221 17 11.3383 17 9.5C17 5.35786 13.6421 2 9.5 2ZM4 9.5C4 6.46243 6.46243 4 9.5 4C12.5376 4 15 6.46243 15 9.5C15 12.5376 12.5376 15 9.5 15C6.46243 15 4 12.5376 4 9.5Z"/>
  </symbol>
  <symbol viewBox="0 0 24 24" id="attention-fill">
    <path fill-rule="evenodd" clip-rule="evenodd" d="M22 12C22 17.5228 17.5228 22 12 22C6.47715 22 2 17.5228 2 12C2 6.47715 6.47715 2 12 2C17.5228 2 22 6.47715 22 12ZM13 6V14H11V6H13ZM12 18C12.8284 18 13.5 17.3284 13.5 16.5C13.5 15.6716 12.8284 15 12 15C11.1716 15 10.5 15.6716 10.5 16.5C10.5 17.3284 11.1716 18 12 18Z" />
  </symbol>
  <symbol viewBox="0 0 25 24" id="pension-fill">
    <path d="M9.05859 8.5C9.05859 4.6 12.1586 1.5 16.0586 1.5C19.9586 1.5 22.9586 4.6 22.9586 8.5C22.9586 12.4 19.8586 15.5 15.9586 15.5C15.4586 15.5 14.9586 15.4 14.4586 15.3V14.5C14.4586 13.1 13.3586 12 11.9586 12H9.95859C9.35859 11 9.05859 9.8 9.05859 8.5ZM16.5586 9H18.5586V8H17.0586L18.7586 5H17.6586L15.9586 7.9L14.3586 5H13.2586L14.9586 8H13.5586V9H15.5586V10H13.5586V11H15.5586V12.5H16.5586V11H18.5586V10H16.5586V9ZM5.55703 7.1999C5.55703 8.19401 4.75114 8.9999 3.75703 8.9999C2.76292 8.9999 1.95703 8.19401 1.95703 7.1999C1.95703 6.20579 2.76292 5.3999 3.75703 5.3999C4.75114 5.3999 5.55703 6.20579 5.55703 7.1999ZM8.05937 19.1003L10.5594 22.5003L11.5594 21.9003L11.8594 21.7003L11.5594 21.0003L9.75937 17.2003C9.65937 16.9003 9.35938 16.7003 9.05937 16.6003L5.45938 15.9003V14.0003C5.57337 14.0459 5.68216 14.0915 5.78813 14.1359L5.78815 14.1359L5.78816 14.1359C6.14698 14.2863 6.47338 14.4231 6.85938 14.5003C7.75938 14.7003 8.65937 14.8003 9.45937 14.6003C9.45937 14.1003 9.55937 13.5003 9.85938 13.1003C9.43233 13.1003 9.07824 13.0274 8.67249 12.9438L8.67247 12.9438L8.67234 12.9437C8.60306 12.9295 8.53228 12.9149 8.45938 12.9003C7.55938 12.7003 6.85938 12.3003 6.05937 11.7003C5.88806 11.5535 5.71675 11.3467 5.53224 11.1241C4.96284 10.437 4.2678 9.59821 3.05938 9.90031C2.35938 10.1003 1.85938 10.7003 1.85938 11.5003V17.2003C1.85938 18.2003 2.65938 18.9003 3.55938 18.9003L8.05937 19.1003ZM10.5586 14.5C10.5586 13.7 11.2586 13 12.0586 13C12.8586 13 13.5586 13.7 13.5586 14.5V22.5H12.5586V14.5C12.5586 14.2 12.3586 14 12.0586 14C11.7586 14 11.5586 14.2 11.5586 14.5V15H10.5586V14.5Z"/>
  </symbol>
  <symbol viewBox="0 0 25 24" id="smartphone-fill">
    <path d="M6.89531 2H17.3953C18.3953 2 19.1953 2.8 19.2953 3.8V20.3C19.2953 21.3 18.4953 22.1 17.4953 22.1H6.99531C5.99531 22.1 5.19531 21.3 5.19531 20.3V3.8C5.19531 2.8 5.99531 2 6.89531 2ZM12.1953 20.7C12.3953 20.7 12.5953 20.6 12.7953 20.5C13.0953 20.3 13.1953 20.1 13.1953 19.7C13.1953 19.1 12.7953 18.7 12.1953 18.7C11.5953 18.7 11.1953 19.1 11.1953 19.7C11.1953 20.1 11.3953 20.3 11.5953 20.5C11.6953 20.6 11.9953 20.7 12.1953 20.7ZM6.69531 17.5H17.6953V4H6.69531V17.5ZM7.69531 5H16.6953V16.5H7.69531V5Z"/>
  </symbol>
  <symbol viewBox="0 0 24 24" id="more_vert-fill">
    <path d="M14 4.625C14 5.72957 13.1046 6.625 12 6.625C10.8954 6.625 10 5.72957 10 4.625C10 3.52043 10.8954 2.625 12 2.625C13.1046 2.625 14 3.52043 14 4.625Z"/>
    <path d="M14 12C14 13.1046 13.1046 14 12 14C10.8954 14 10 13.1046 10 12C10 10.8954 10.8954 10 12 10C13.1046 10 14 10.8954 14 12Z"/>
    <path d="M14 19.375C14 20.4796 13.1046 21.375 12 21.375C10.8954 21.375 10 20.4796 10 19.375C10 18.2704 10.8954 17.375 12 17.375C13.1046 17.375 14 18.2704 14 19.375Z"/>
  </symbol>
  <symbol viewBox="0 0 24 24" id="information">
    <path d="M10.95 6.95C10.65 7.25 10.5 7.55 10.5 8C10.5 8.45 10.65 8.75 10.95 9.05C11.25 9.35 11.55 9.5 12 9.5C12.45 9.5 12.75 9.35 13.05 9.05C13.35 8.75 13.5 8.45 13.5 8C13.5 7.55 13.35 7.25 13.05 6.95C12.75 6.65 12.45 6.5 12 6.5C11.55 6.5 11.25 6.65 10.95 6.95Z"/>
    <path d="M11 12.5V16H9.5V18H14.5V16H13V10.5H10V12.5H11Z"/>
    <path d="M12 22C6.5 22 2 17.5 2 12C2 6.5 6.5 2 12 2C17.5 2 22 6.5 22 12C22 17.5 17.5 22 12 22ZM4 12C4 16.3954 7.60457 20 12 20C16.3954 20 20 16.3954 20 12C20 7.60457 16.3954 4 12 4C7.60457 4 4 7.60457 4 12Z"/>
  </symbol>
  <symbol viewBox="0 0 24 24" id="chevron_left-fill">
    <path d="M14.6144 2.11621L16.3821 3.88398L8.266 12.0001L16.3821 20.1162L14.6144 21.884L4.73047 12.0001L14.6144 2.11621Z"/>
  </symbol>
  <symbol viewBox="0 0 25 24" id="printer-fill">
    <path d="M5.26172 3H19.2617V6.2H5.26172V3ZM20.5617 17H22.2617V7.5H2.26172V17H3.96172V10.7H20.5617V17ZM5.26172 21H19.2617V12H5.26172V21ZM8.26172 14.5H16.2617V15.5H8.26172V14.5ZM16.2617 18.5H8.26172V17.5H16.2617V18.5Z"/>
  </symbol>
  <symbol viewBox="0 0 24 24" id="search-fill">
    <path d="M9.5 1.75C5.21979 1.75 1.75 5.21979 1.75 9.5C1.75 13.7802 5.21979 17.25 9.5 17.25C11.06 17.25 12.5124 16.7891 13.7283 15.996L20.1162 22.3839L21.884 20.6161L15.5775 14.3096C16.6247 12.9881 17.25 11.3171 17.25 9.5C17.25 5.21979 13.7802 1.75 9.5 1.75ZM4.25 9.5C4.25 6.6005 6.6005 4.25 9.5 4.25C12.3995 4.25 14.75 6.6005 14.75 9.5C14.75 12.3995 12.3995 14.75 9.5 14.75C6.6005 14.75 4.25 12.3995 4.25 9.5Z"/>
  </symbol>
  <symbol viewBox="0 0 24 24" id="text-A">
    <path d="M7.7905 14.3323H15.0985L14.6785 13.1283L11.4865 3.69233C11.2438 4.43899 10.1518 7.59366 8.2105 13.1563L7.7905 14.3323ZM17.3945 21.1083L15.6025 15.8723H7.2585L5.4385 21.1083H3.5625L10.2265 2.23633H12.7465L19.2705 21.1083H17.3945Z"/>
  </symbol>
  <symbol viewBox="0 0 24 24" id="person">
    <path fill-rule="evenodd" clip-rule="evenodd" d="M12 10a3 3 0 1 0 0-6 3 3 0 0 0 0 6Zm0 2a5 5 0 1 0 0-10 5 5 0 0 0 0 10Z"/><path d="M18 22h2a8 8 0 1 0-16 0h2a6 6 0 0 1 12 0Z"/>
  </symbol>
  <symbol viewBox="0 0 24 24" id="home">
    <path d="M5.99997 18.9996H9.34615V13.0573H14.6538V18.9996H18V9.99964L12 5.48042L5.99997 9.99964V18.9996ZM4.5 20.4996V9.24967L12 3.60547L19.5 9.24967V20.4996H13.1538V14.5573H10.8461V20.4996H4.5Z"/>
  </symbol>
  <symbol viewBox="0 0 25 24" id="smartphone">
    <path d="M17.3953 2H6.89531C5.99531 2 5.19531 2.8 5.19531 3.8V20.3C5.19531 21.3 5.99531 22.1 6.99531 22.1H17.4953C18.4953 22.1 19.2953 21.3 19.2953 20.3V3.8C19.1953 2.8 18.3953 2 17.3953 2ZM12.7953 20.5C12.5953 20.6 12.3953 20.7 12.1953 20.7C11.9953 20.7 11.6953 20.6 11.5953 20.5C11.3953 20.3 11.1953 20.1 11.1953 19.7C11.1953 19.1 11.5953 18.7 12.1953 18.7C12.7953 18.7 13.1953 19.1 13.1953 19.7C13.1953 20.1 13.0953 20.3 12.7953 20.5ZM17.6953 17.5H6.69531V4H17.6953V17.5Z"/>
  </symbol>
  <symbol viewBox="0 0 24 24" id="radiobutton-off">
    <path d="M12 21.5C10.6833 21.5 9.446 21.25 8.288 20.75C7.12933 20.25 6.125 19.575 5.275 18.725C4.425 17.875 3.75 16.8707 3.25 15.712C2.75 14.554 2.5 13.3167 2.5 12C2.5 10.6833 2.75 9.44567 3.25 8.287C3.75 7.129 4.425 6.125 5.275 5.275C6.125 4.425 7.12933 3.75 8.288 3.25C9.446 2.75 10.6833 2.5 12 2.5C13.3167 2.5 14.5543 2.75 15.713 3.25C16.871 3.75 17.875 4.425 18.725 5.275C19.575 6.125 20.25 7.129 20.75 8.287C21.25 9.44567 21.5 10.6833 21.5 12C21.5 13.3167 21.25 14.554 20.75 15.712C20.25 16.8707 19.575 17.875 18.725 18.725C17.875 19.575 16.871 20.25 15.713 20.75C14.5543 21.25 13.3167 21.5 12 21.5ZM12 20C14.2333 20 16.125 19.225 17.675 17.675C19.225 16.125 20 14.2333 20 12C20 9.76667 19.225 7.875 17.675 6.325C16.125 4.775 14.2333 4 12 4C9.76667 4 7.875 4.775 6.325 6.325C4.775 7.875 4 9.76667 4 12C4 14.2333 4.775 16.125 6.325 17.675C7.875 19.225 9.76667 20 12 20Z"/>
  </symbol>
  <symbol viewBox="0 0 25 24" id="add-fill">
    <path d="M10.75 13.25V21.5H13.25V13.25H21.5V10.75H13.25V2.5H10.75V10.75H2.5V13.25H10.75Z"/>
  </symbol>
  <symbol viewBox="0 0 24 24" id="arrow_downward">
    <path d="M13 16.0858L18.293 10.7928L19.7072 12.2071L12.0001 19.9142L4.29297 12.2071L5.70718 10.7928L11 16.0857V4.5H13V16.0858Z"/>
  </symbol>
  <symbol viewBox="0 0 24 24" id="trash-fill">
    <path d="M7.3077 20.4998C6.80257 20.4998 6.375 20.3248 6.025 19.9748C5.675 19.6248 5.5 19.1972 5.5 18.6921V5.99981H4.5V4.49983H8.99997V3.61523H15V4.49983H19.5V5.99981H18.5V18.6921C18.5 19.1972 18.325 19.6248 17.975 19.9748C17.625 20.3248 17.1974 20.4998 16.6922 20.4998H7.3077ZM9.40385 16.9998H10.9038V7.99981H9.40385V16.9998ZM13.0961 16.9998H14.5961V7.99981H13.0961V16.9998Z"/>
  </symbol>
  <symbol viewBox="0 0 25 25" id="dummy-fill">
    <path d="M12.0722 3.85352H6.43087L3.07422 7.2132V12.8596L12.0722 3.85352ZM14.3018 3.85352L3.07422 15.0913V19.8535C3.07422 20.1157 3.12465 20.366 3.21635 20.5954L19.8054 3.99139C19.5789 3.90239 19.3323 3.85352 19.0742 3.85352H14.3018ZM20.932 5.11149L4.33149 21.7111C4.56112 21.803 4.81177 21.8535 5.07422 21.8535H9.83036L21.058 10.6158V12.8474L12.06 21.8535H17.7013L21.058 18.4938V19.9395C21.058 20.0404 21.0514 20.1383 21.0382 20.2334C21.0618 20.1104 21.0742 19.9834 21.0742 19.8535V5.85352C21.0742 5.59133 21.0238 5.34093 20.932 5.11149Z"/>
  </symbol>
  <symbol viewBox="0 0 24 24" id="arrow-line_up-fill">
    <path d="M12.0189 5.75H19.501V3.25H4.50098V5.75H11.9832L3.61719 14.1161L5.38495 15.8838L10.751 10.5178V22H13.251V10.5176L18.6172 15.8838L20.385 14.1161L12.0189 5.75Z"/>
  </symbol>
  <symbol viewBox="0 0 24 24" id="edit-fill">
    <path d="M18.86 8.65576L15.4851 5.31158L16.7985 3.99813C17.0857 3.71097 17.4395 3.56738 17.86 3.56738C18.2805 3.56738 18.6344 3.71097 18.9215 3.99813L20.1581 5.23466C20.4453 5.52182 20.594 5.87053 20.6042 6.28078C20.6145 6.69103 20.476 7.03974 20.1889 7.32691L18.86 8.65576ZM17.7754 9.75573L7.03118 20.5H3.65625V17.125L14.4005 6.38078L17.7754 9.75573Z"/>
  </symbol>
  <symbol viewBox="0 0 24 24" id="checkbox-off">
    <path d="M5.3 20.5C4.8 20.5 4.375 20.325 4.025 19.975C3.675 19.625 3.5 19.2 3.5 18.7V5.3C3.5 4.8 3.675 4.375 4.025 4.025C4.375 3.675 4.8 3.5 5.3 3.5H18.7C19.2 3.5 19.625 3.675 19.975 4.025C20.325 4.375 20.5 4.8 20.5 5.3V18.7C20.5 19.2 20.325 19.625 19.975 19.975C19.625 20.325 19.2 20.5 18.7 20.5H5.3ZM5.3 19H18.7C18.7667 19 18.8333 18.9667 18.9 18.9C18.9667 18.8333 19 18.7667 19 18.7V5.3C19 5.23333 18.9667 5.16667 18.9 5.1C18.8333 5.03333 18.7667 5 18.7 5H5.3C5.23333 5 5.16667 5.03333 5.1 5.1C5.03333 5.16667 5 5.23333 5 5.3V18.7C5 18.7667 5.03333 18.8333 5.1 18.9C5.16667 18.9667 5.23333 19 5.3 19Z"/>
  </symbol>
  <symbol viewBox="0 0 24 24" id="upload-fill">
    <path d="m20.005 10.116-1.768 1.768-4.366-4.366V17h-2.5V7.518l-4.366 4.366-1.768-1.768 7.384-7.384 7.384 7.384Z"/><path d="M5.871 16.5v2.25h13.5V16.5h2.5v4.75h-18.5V16.5h2.5Z"/>
  </symbol>
  <symbol viewBox="0 0 24 24" id="new_window">
    <path d="M6 3.5C4.61929 3.5 3.5 4.61929 3.5 6V18C3.5 19.3807 4.61929 20.5 6 20.5H18C19.3807 20.5 20.5 19.3807 20.5 18V13.5H18.5V18C18.5 18.2761 18.2761 18.5 18 18.5H6C5.72386 18.5 5.5 18.2761 5.5 18V6C5.5 5.72386 5.72386 5.5 6 5.5H10.5V3.5H6Z"/>
    <path d="M17.0858 5.5H13.5V3.5H20.4999V10.5H18.4999V6.91436L11.7072 13.7071L10.293 12.2928L17.0858 5.5Z"/>
  </symbol>
  <symbol viewBox="0 0 24 24" id="text-Q">
    <path d="M4.97559 10.2655C4.97559 12.7482 5.56359 14.7175 6.73959 16.1735C7.93426 17.6108 9.52093 18.3295 11.4996 18.3295C13.5529 18.3295 15.1396 17.6202 16.2596 16.2015C17.3796 14.7642 17.9396 12.7855 17.9396 10.2655C17.9396 7.72682 17.3703 5.74815 16.2316 4.32948C15.1116 2.91082 13.5156 2.20148 11.4436 2.20148C9.42759 2.20148 7.84093 2.92015 6.68359 4.35749C5.54493 5.77615 4.97559 7.74548 4.97559 10.2655ZM20.4876 22.8935L18.6676 23.6775L13.0116 19.8975C12.5823 19.9722 12.0783 20.0095 11.4996 20.0095C8.99826 20.0095 6.98226 19.1228 5.45159 17.3495C3.93959 15.5762 3.18359 13.2148 3.18359 10.2655C3.18359 7.29748 3.92093 4.93615 5.39559 3.18148C6.88893 1.40815 8.90493 0.521484 11.4436 0.521484C14.0569 0.521484 16.0916 1.39882 17.5476 3.15348C19.0036 4.88948 19.7316 7.26015 19.7316 10.2655C19.7316 12.4868 19.3116 14.3815 18.4716 15.9495C17.6316 17.5175 16.4556 18.6375 14.9436 19.3095L20.4876 22.8935Z"/>
  </symbol>
  <symbol viewBox="0 0 25 24" id="arrow_cross-fill">
    <path d="M5.46797 7.99961L7.46797 9.99961L6.06797 11.3996L1.66797 6.99961L6.06797 2.59961L7.46797 3.99961L5.46797 5.99961H21.268V7.99961H5.46797ZM16.6695 12.9996L18.0695 11.5996L22.4695 15.9996L18.0695 20.3996L16.6695 18.9996L18.6695 16.9996H2.76953V14.9996H18.6695L16.6695 12.9996Z"/>
  </symbol>
  <symbol viewBox="0 0 25 24" id="arrow_cross">
    <path d="M4.86484 7.7L7.06484 10L6.06484 11L1.96484 7L6.06484 3L7.06484 4L4.86484 6.2H21.0648V7.7H4.86484ZM17.0664 13L18.0664 12L22.1664 16L18.0664 20L17.0664 19L19.2664 16.7H3.06641V15.2H19.2664L17.0664 13Z"/>
  </symbol>
  <symbol viewBox="0 0 24 24" id="home-fill">
    <path d="M4.5 20.4996V9.24967L12 3.60547L19.5 9.24967V20.4996H13.9038V13.8073H10.0961V20.4996H4.5Z"/>
  </symbol>
  <symbol viewBox="0 0 24 24" id="help-fill">
    <path d="M12 2C6.5 2 2 6.5 2 12C2 17.5 6.5 22 12 22C17.5 22 22 17.5 22 12C22 6.5 17.5 2 12 2ZM12 17.5C11.4 17.5 11 17.1 11 16.5C11 15.9 11.4 15.5 12 15.5C12.6 15.5 13 15.9 13 16.5C13 17.1 12.6 17.5 12 17.5ZM13.9 11.3C13.1 12 12.7 13 12.8 14H11.3C11.2 12.5 11.8 11.2 12.9 10.2C13.7 9.5 13.6 8.8 13.5 8.4C13 7 10.5 7.3 10.5 8.9H9C9 7.1 10.7 5.7 12.4 6C15.1 6.4 15.9 9.7 13.9 11.3Z"/>
  </symbol>
  <symbol viewBox="0 0 24 24" id="lock">
    <path d="M6.3 21.5C5.8 21.5 5.375 21.325 5.025 20.975C4.675 20.625 4.5 20.2 4.5 19.7V10.3C4.5 9.8 4.675 9.375 5.025 9.025C5.375 8.675 5.8 8.5 6.3 8.5H7.5V6.5C7.5 5.25 7.93733 4.18733 8.812 3.312C9.68733 2.43733 10.75 2 12 2C13.25 2 14.3127 2.43733 15.188 3.312C16.0627 4.18733 16.5 5.25 16.5 6.5V8.5H17.7C18.2 8.5 18.625 8.675 18.975 9.025C19.325 9.375 19.5 9.8 19.5 10.3V19.7C19.5 20.2 19.325 20.625 18.975 20.975C18.625 21.325 18.2 21.5 17.7 21.5H6.3ZM6.3 20H17.7C17.7833 20 17.8543 19.971 17.913 19.913C17.971 19.8543 18 19.7833 18 19.7V10.3C18 10.2167 17.971 10.1457 17.913 10.087C17.8543 10.029 17.7833 10 17.7 10H6.3C6.21667 10 6.146 10.029 6.088 10.087C6.02933 10.1457 6 10.2167 6 10.3V19.7C6 19.7833 6.02933 19.8543 6.088 19.913C6.146 19.971 6.21667 20 6.3 20ZM12 16.75C12.4833 16.75 12.896 16.5793 13.238 16.238C13.5793 15.896 13.75 15.4833 13.75 15C13.75 14.5167 13.5793 14.104 13.238 13.762C12.896 13.4207 12.4833 13.25 12 13.25C11.5167 13.25 11.104 13.4207 10.762 13.762C10.4207 14.104 10.25 14.5167 10.25 15C10.25 15.4833 10.4207 15.896 10.762 16.238C11.104 16.5793 11.5167 16.75 12 16.75ZM9 8.5H15V6.5C15 5.66667 14.7083 4.95833 14.125 4.375C13.5417 3.79167 12.8333 3.5 12 3.5C11.1667 3.5 10.4583 3.79167 9.875 4.375C9.29167 4.95833 9 5.66667 9 6.5V8.5Z"/>
  </symbol>
  <symbol viewBox="0 0 25 25" id="dummy">
    <path d="M4.18903 21.8535C3.93542 21.7897 3.70215 21.6512 3.48922 21.4381C3.27631 21.225 3.13797 20.9915 3.07422 20.7377L19.9431 3.85352C20.2185 3.92818 20.4544 4.06664 20.6511 4.26889C20.8477 4.47116 20.9888 4.70464 21.0742 4.96933L4.18903 21.8535ZM3.07422 15.0913V12.8596L12.0722 3.85352H14.3018L3.07422 15.0913ZM3.07422 7.2132V5.76756C3.07422 5.23271 3.25935 4.77999 3.6296 4.4094C3.99985 4.03881 4.45216 3.85352 4.98653 3.85352H6.43087L3.07422 7.2132ZM17.7013 21.8535L21.058 18.4938V19.9395C21.058 20.4743 20.8728 20.927 20.5026 21.2976C20.1323 21.6682 19.68 21.8535 19.1456 21.8535H17.7013ZM9.83036 21.8535L21.058 10.6158V12.8474L12.06 21.8535H9.83036Z"/>
  </symbol>
  <symbol viewBox="0 0 24 24" id="checkbox-on">
    <path d="M10.6 15.85L17.325 9.125L16.275 8.075L10.6 13.75L7.75 10.9L6.7 11.95L10.6 15.85ZM5.3 20.5C4.8 20.5 4.375 20.325 4.025 19.975C3.675 19.625 3.5 19.2 3.5 18.7V5.3C3.5 4.8 3.675 4.375 4.025 4.025C4.375 3.675 4.8 3.5 5.3 3.5H18.7C19.2 3.5 19.625 3.675 19.975 4.025C20.325 4.375 20.5 4.8 20.5 5.3V18.7C20.5 19.2 20.325 19.625 19.975 19.975C19.625 20.325 19.2 20.5 18.7 20.5H5.3Z"/>
  </symbol>
  <symbol viewBox="0 0 25 24" id="qr_code">
    <path d="M2.76172 7.5H4.26172V4H7.76172V2.5H2.76172V7.5ZM2.76172 21.5H7.76172V20H4.26172V16.5H2.76172V21.5ZM21.7617 21.5H16.7617V20H20.2617V16.5H21.7617V21.5ZM20.2617 7.5H21.7617V2.5H16.7617V4H20.2617V7.5ZM9.76172 7.5V9.5H7.76172V7.5H9.76172ZM11.2617 6H6.26172V11H11.2617V6ZM16.7617 9.5V7.5H14.7617V9.5H16.7617ZM13.2617 6H18.2617V11H13.2617V6ZM9.76172 14.5V16.5H7.76172V14.5H9.76172ZM11.2617 13H6.26172V18H11.2617V13ZM13.2617 13H18.2617V18H13.2617V13Z"/>
  </symbol>
  <symbol viewBox="0 0 25 24" id="idcard">
    <path d="M22.5664 20H1.56641V4H22.5664V20ZM3.06641 18.5H21.0664V5.5H3.06641V18.5ZM9.06641 9.5V14.5H6.56641V9.5H9.06641ZM10.5664 8H5.06641V16H9.66641H10.5664V8ZM12.5664 8H19.0664V9.5H12.5664V8ZM19.0664 11.2002H12.5664V12.7002H19.0664V11.2002ZM12.5664 14.5H19.0664V16H12.5664V14.5Z"/>
  </symbol>
  <symbol viewBox="0 0 25 24" id="mail">
    <path d="M2.52344 4V20H22.5234V4H2.52344ZM20.9234 5.5L12.5234 11.9L4.12344 5.5H20.9234ZM4.02344 18.5V7.3L12.5234 13.8L21.0234 7.3V18.5H4.02344Z"/>
  </symbol>
  <symbol viewBox="0 0 24 24" id="arrow_left">
    <path d="M13.2073 5.70718L11.793 4.29297L4.08594 12.0001L11.793 19.7072L13.2073 18.293L7.91441 13.0001H19.5V11.0001H7.91432L13.2073 5.70718Z"/>
  </symbol>
  <symbol viewBox="0 0 24 24" id="menu-fill">
    <path d="M21 7.25H3V4.75H21V7.25Z"/>
    <path d="M21 13.25H3V10.75H21V13.25Z"/>
    <path d="M21 19.25H3V16.75H21V19.25Z"/>
  </symbol>
  <symbol viewBox="0 0 24 24" id="complete">
    <path d="M2 12C2 17.5 6.5 22 12 22C17.5 22 22 17.5 22 12C22 6.5 17.5 2 12 2C6.5 2 2 6.5 2 12ZM3.5 12C3.5 7.3 7.3 3.5 12 3.5C16.7 3.5 20.5 7.3 20.5 12C20.5 16.7 16.7 20.5 12 20.5C7.3 20.5 3.5 16.7 3.5 12ZM7.19922 12L11.1992 16L17.1992 10L16.0992 9L11.1992 13.9L8.29922 10.9L7.19922 12Z"/>
  </symbol>
  <symbol viewBox="0 0 24 24" id="attention">
    <path fill-rule="evenodd" clip-rule="evenodd" d="M12 20C16.4183 20 20 16.4183 20 12C20 7.58172 16.4183 4 12 4C7.58172 4 4 7.58172 4 12C4 16.4183 7.58172 20 12 20ZM12 22C17.5228 22 22 17.5228 22 12C22 6.47715 17.5228 2 12 2C6.47715 2 2 6.47715 2 12C2 17.5228 6.47715 22 12 22Z"/>
    <path d="M13 6H11V14H13V6Z"/>
    <path d="M12 18C12.8284 18 13.5 17.3284 13.5 16.5C13.5 15.6716 12.8284 15 12 15C11.1716 15 10.5 15.6716 10.5 16.5C10.5 17.3284 11.1716 18 12 18Z"/>
  </symbol>
  <symbol viewBox="0 0 24 24" id="arrow_up">
    <path d="M19.7072 11.793L12.0001 4.08594L4.29297 11.793L5.70718 13.2073L11 7.91444V19.5001H13V7.91429L18.293 13.2073L19.7072 11.793Z"/>
  </symbol>
  <symbol viewBox="0 0 24 24" id="check-fill">
    <path d="M18.3243 5.29004L20.1006 7.06634L9.1589 18.008L3.11719 11.9663L4.89353 10.19L9.1589 14.4554L18.3243 5.29004Z"/>
  </symbol>
  <symbol viewBox="0 0 24 24" id="download">
    <path d="M13 2.5V13.5858L17.793 8.79285L19.2072 10.2071L12.0001 17.4142L4.79297 10.2071L6.20718 8.79285L11 13.5857V2.5H13Z"/>
    <path d="M5 16.5V19H19V16.5H21V21H3V16.5H5Z"/>
  </symbol>
  <symbol viewBox="0 0 24 24" id="chevron_right">
    <path d="M15.5859 12.0001L7.79297 4.20718L9.20718 2.79297L18.4143 12.0001L9.20718 21.2072L7.79297 19.793L15.5859 12.0001Z"/>
  </symbol>
  <symbol viewBox="0 0 24 24" id="arrow-line_right-fill">
    <path d="M18.25 12.0179V19.5H20.75V4.5L18.25 4.5V11.9823L9.88394 3.61621L8.11617 5.38398L13.4822 10.75L2 10.75L2 13.25H13.4824L8.11617 18.6162L9.88394 20.384L18.25 12.0179Z"/>
  </symbol>
  <symbol viewBox="0 0 24 24" id="chevron_left">
    <path d="M14.293 2.79297L15.7073 4.20718L7.91436 12.0001L15.7073 19.793L14.293 21.2072L5.08594 12.0001L14.293 2.79297Z"/>
  </symbol>
  <symbol viewBox="0 0 24 24" id="shield">
    <path d="M11.7 21.9L12 22L12.3 21.8C17.7 19.7 21 15.4 21 10.6V4.9L12 2L3 4.9V10.7C3 15.5 6.3 19.8 11.7 21.9ZM4.5 10.6V6L12 3.6L19.5 6V10.6C19.5 14.7 16.6 18.4 12 20.3C7.4 18.4 4.5 14.7 4.5 10.6ZM7 11.5L11 15.5L17 9.6L15.9 8.5L11 13.4L8.1 10.4L7 11.5Z"/>
  </symbol>
  <symbol viewBox="0 0 24 24" id="update-fill">
    <path d="M20.3984 13.2998L22.0984 11.5998L23.5984 12.9998L19.4984 17.0998L15.3984 12.9998L16.7984 11.5998L18.4984 13.2998V11.9998C18.4984 8.1998 15.5984 5.1998 11.9984 5.1998C11.2984 5.1998 10.4984 5.2998 9.79844 5.5998L9.59844 5.6998L8.89844 3.8998L9.09844 3.7998C10.0984 3.4998 10.9984 3.2998 11.9984 3.2998C16.5984 3.2998 20.3984 7.1998 20.3984 11.9998V13.2998ZM11.9984 18.8C12.6984 18.8 13.4984 18.7 14.1984 18.4L14.2984 18.3L14.9984 20.1L14.7984 20.2C13.7984 20.5 12.8984 20.7 11.8984 20.7C7.29844 20.7 3.49844 16.8 3.49844 12V11.3L1.79844 13L0.398438 11.6L4.49844 7.5L8.59844 11.5L7.19844 12.9L5.49844 11.2V12C5.49844 15.8 8.39844 18.8 11.9984 18.8Z"/>
  </symbol>
  <symbol viewBox="0 0 24 24" id="update">
    <path d="M20.5 13.7L22.5 11.7L23.5 12.7L19.7 16.5L15.9 12.7L17 11.6L19 13.6V11.7C19 7.7 15.9 4.4 12.1 4.4C11.3 4.4 10.5 4.6 9.7 4.9L9.2 3.5C10.2 3.2 11.1 3 12.1 3C16.8 3 20.5 6.9 20.5 11.8V13.7ZM5.1 11.7C5.1 15.7 8.2 19 12 19C12.5333 19 13.0667 18.9111 13.6 18.8222C13.8667 18.7778 14.1333 18.7333 14.4 18.7L14.9 20.1C13.9 20.4 13 20.6 12 20.6C7.4 20.6 3.6 16.6 3.6 11.8V10.4L1.6 12.4L0.5 11.3L4.3 7.5L8.2 11.2L7.1 12.3L5.1 10.3V11.7Z"/>
  </symbol>
  <symbol viewBox="0 0 24 24" id="document">
    <path d="M8.25 17.75H15.75V16.25H8.25V17.75ZM8.25 13.75H15.75V12.25H8.25V13.75ZM6.3077 21.5C5.80257 21.5 5.375 21.325 5.025 20.975C4.675 20.625 4.5 20.1974 4.5 19.6923V4.3077C4.5 3.80257 4.675 3.375 5.025 3.025C5.375 2.675 5.80257 2.5 6.3077 2.5H14.25L19.5 7.74995V19.6923C19.5 20.1974 19.325 20.625 18.975 20.975C18.625 21.325 18.1974 21.5 17.6922 21.5H6.3077ZM13.5 8.49995V3.99998H6.3077C6.23077 3.99998 6.16024 4.03203 6.09612 4.09613C6.03202 4.16024 5.99997 4.23077 5.99997 4.3077V19.6923C5.99997 19.7692 6.03202 19.8397 6.09612 19.9038C6.16024 19.9679 6.23077 20 6.3077 20H17.6922C17.7692 20 17.8397 19.9679 17.9038 19.9038C17.9679 19.8397 18 19.7692 18 19.6923V8.49995H13.5Z"/>
  </symbol>
  <symbol viewBox="0 0 24 24" id="arrow-line_down">
    <path d="M19.0001 18L5.00015 18L5.00015 20H19.0001V18Z"/>
    <path d="M12.0001 17.9142L4.29297 10.2071L5.70718 8.79286L11.0002 14.0858L11.0002 2.5L13.0002 2.5L13.0001 14.0857L18.293 8.79286L19.7072 10.2071L12.0001 17.9142Z"/>
  </symbol>
  <symbol viewBox="0 0 24 24" id="arrow_right">
    <path d="M16.0859 11.0001L10.793 5.70718L12.2072 4.29297L19.9143 12.0001L12.2072 19.7072L10.793 18.293L16.0858 13.0001H4.5V11.0001H16.0859Z"/>
  </symbol>
  <symbol viewBox="0 0 24 24" id="more_vert">
    <path d="M12.0136 20.85C11.6035 20.85 11.2526 20.7052 10.9609 20.4157C10.6693 20.1261 10.5234 19.7781 10.5234 19.3715C10.5234 18.9805 10.6676 18.6333 10.9559 18.33C11.2443 18.0267 11.5909 17.875 11.9958 17.875C12.4142 17.875 12.7651 18.0268 13.0484 18.3304C13.3318 18.634 13.4734 18.984 13.4734 19.3804C13.4734 19.7768 13.3327 20.1208 13.0511 20.4125C12.7695 20.7042 12.4237 20.85 12.0136 20.85ZM12.0136 13.475C11.6035 13.475 11.2526 13.3308 10.9609 13.0425C10.6693 12.7542 10.5234 12.4076 10.5234 12.0027C10.5234 11.5842 10.6676 11.2333 10.9559 10.95C11.2443 10.6667 11.5909 10.525 11.9958 10.525C12.4142 10.525 12.7651 10.6658 13.0484 10.9473C13.3318 11.2289 13.4734 11.5748 13.4734 11.9849C13.4734 12.395 13.3327 12.7458 13.0511 13.0375C12.7695 13.3292 12.4237 13.475 12.0136 13.475ZM12.0136 6.125C11.6035 6.125 11.2526 5.97769 10.9609 5.68307C10.6693 5.38846 10.5234 5.03429 10.5234 4.62057C10.5234 4.20686 10.6676 3.85417 10.9559 3.5625C11.2443 3.27083 11.5909 3.125 11.9958 3.125C12.4142 3.125 12.7651 3.27202 13.0484 3.56605C13.3318 3.86007 13.4734 4.21393 13.4734 4.62765C13.4734 5.04137 13.3327 5.39436 13.0511 5.68663C12.7695 5.97888 12.4237 6.125 12.0136 6.125Z"/>
  </symbol>
  <symbol viewBox="0 0 25 24" id="qr_code-fill">
    <path d="M3.26172 21V3H21.2617V21H3.26172ZM6.26172 18H11.2617V13H6.26172V18ZM6.26172 11H11.2617V6H6.26172V11ZM18.2617 6H13.2617V11H18.2617V6ZM13.2617 18H18.2617V13H13.2617V18ZM14.4609 7.2002H16.9609V9.7002H14.4609V7.2002ZM7.46094 14.2002H9.96094V16.7002H7.46094V14.2002ZM9.96094 7.2002H7.46094V9.7002H9.96094V7.2002Z"/>
  </symbol>
  <symbol viewBox="0 0 24 24" id="check">
    <path d="M9.15882 17.3009L3.82422 11.9663L4.89344 10.8971L9.15882 15.1624L18.3242 5.99707L19.3934 7.06627L9.15882 17.3009Z"/>
  </symbol>
  <symbol viewBox="0 0 24 24" id="arrow-line_down-fill">
    <path d="M11.9832 18.25H4.50117L4.50116 20.75H19.5012V18.25H12.0189L20.385 9.88394L18.6172 8.11617L13.2512 13.4822L13.2512 2L10.7512 2L10.7512 13.4824L5.38495 8.11617L3.61719 9.88394L11.9832 18.25Z"/>
  </symbol>
  <symbol viewBox="0 0 24 24" id="download-fill">
    <path d="M13.25 2.5V12.9823L17.6162 8.61609L19.384 10.3839L12.0001 17.7677L4.61621 10.3839L6.38398 8.61609L10.75 12.9821V2.5H13.25Z"/>
    <path d="M5.25 16.5V18.75H18.75V16.5H21.25V21.25H2.75V16.5H5.25Z"/>
  </symbol>
  <symbol viewBox="0 0 24 24" id="arrow_upward">
    <path d="M19.7072 11.793L12.0001 4.08594L4.29297 11.793L5.70718 13.2073L11 7.91444V19.5001H13V7.91429L18.293 13.2073L19.7072 11.793Z"/>
  </symbol>
  <symbol viewBox="0 0 25 24" id="add">
    <path d="M11 13V21H13V13H21V11H13V3H11V11H3V13H11Z"/>
  </symbol>
  <symbol viewBox="0 0 24 24" id="close">
    <path d="M6.40156 18.6496L5.35156 17.5996L10.9516 11.9996L5.35156 6.39961L6.40156 5.34961L12.0016 10.9496L17.6016 5.34961L18.6516 6.39961L13.0516 11.9996L18.6516 17.5996L17.6016 18.6496L12.0016 13.0496L6.40156 18.6496Z"/>
  </symbol>
  <symbol viewBox="0 0 24 24" id="arrow_left-fill">
    <path d="M13.886 5.38398L12.1183 3.61621L3.73438 12.0001L12.1183 20.384L13.886 18.6162L8.51994 13.2501H20.002V10.7501H8.51988L13.886 5.38398Z"/>
  </symbol>
  <symbol viewBox="0 0 24 24" id="more-fill">
    <path d="M4.81752 10.5871C5.20428 10.2003 5.68427 10 6.23042 10C6.77658 10 7.25658 10.2003 7.64333 10.5871C8.03009 10.9738 8.23039 11.4538 8.23039 12C8.23039 12.5461 8.03009 13.0261 7.64333 13.4129C7.25658 13.7996 6.77658 14 6.23042 14C5.68427 14 5.20428 13.7996 4.81752 13.4129C4.43077 13.0261 4.23047 12.5461 4.23047 12C4.23047 11.4538 4.43077 10.9738 4.81752 10.5871ZM10.5867 10.5871C10.9735 10.2003 11.4535 10 11.9996 10C12.5458 10 13.0258 10.2003 13.4125 10.5871C13.7993 10.9738 13.9996 11.4538 13.9996 12C13.9996 12.5461 13.7993 13.0261 13.4125 13.4129C13.0258 13.7996 12.5458 14 11.9996 14C11.4535 14 10.9735 13.7996 10.5867 13.4129C10.2 13.0261 9.99967 12.5461 9.99967 12C9.99967 11.4538 10.2 10.9738 10.5867 10.5871ZM16.356 10.5871C16.7427 10.2003 17.2227 10 17.7689 10C18.315 10 18.795 10.2003 19.1818 10.5871C19.5685 10.9738 19.7688 11.4538 19.7688 12C19.7688 12.5461 19.5685 13.0261 19.1818 13.4129C18.795 13.7996 18.315 14 17.7689 14C17.2227 14 16.7427 13.7997 16.356 13.4129C15.9692 13.0261 15.7689 12.5461 15.7689 12C15.7689 11.4538 15.9692 10.9738 16.356 10.5871Z"/>
  </symbol>
  <symbol viewBox="0 0 24 24" id="copy">
    <path d="M7.5 18H20V2.5H7.5V18ZM18.5 16.5H9V4H18.5V16.5ZM4 21.5002H15.8V20.0002H5.5V6.7002H4V21.5002Z"/>
  </symbol>
  <symbol viewBox="0 0 24 24" id="subtract">
    <path d="M3 11H21V13H3V11Z"/>
  </symbol>
  <symbol viewBox="0 0 24 24" id="new_window">
    <path d="M6 3.5C4.61929 3.5 3.5 4.61929 3.5 6V18C3.5 19.3807 4.61929 20.5 6 20.5H18C19.3807 20.5 20.5 19.3807 20.5 18V13.5H18.5V18C18.5 18.2761 18.2761 18.5 18 18.5H6C5.72386 18.5 5.5 18.2761 5.5 18V6C5.5 5.72386 5.72386 5.5 6 5.5H10.5V3.5H6Z"/>
    <path d="M17.0858 5.5H13.5V3.5H20.4999V10.5H18.4999V6.91436L11.7072 13.7071L10.293 12.2928L17.0858 5.5Z"/>
  </symbol>
  <symbol viewBox="0 0 24 24" id="arrow_right-fill">
    <path d="M15.4824 10.7501L10.1162 5.38398L11.884 3.61621L20.2679 12.0001L11.884 20.384L10.1162 18.6162L15.4823 13.2501H4V10.7501H15.4824Z"/>
  </symbol>
  <symbol viewBox="0 0 24 24" id="BrandYoutube">
    <path d="M21.5821 7.18612C21.3521 6.32563 20.6744 5.64793 19.8139 5.41791C18.2542 5 12 5 12 5C12 5 5.74583 5 4.18613 5.41791C3.32563 5.64793 2.64793 6.32563 2.41791 7.18612C2 8.74582 2 12 2 12C2 12 2 15.2542 2.41791 16.8139C2.64793 17.6744 3.32563 18.3521 4.18613 18.5821C5.74583 19 12 19 12 19C12 19 18.2542 19 19.8139 18.5821C20.6744 18.3521 21.3521 17.6744 21.5821 16.8139C22 15.2542 22 12 22 12C22 12 22 8.74582 21.5821 7.18612ZM10 15V9L15.1959 12.0001L10 15Z"/>
  </symbol>
  <symbol viewBox="0 0 24 24" id="chevron_up">
    <path d="M12.0001 6.08594L21.2072 15.293L19.793 16.7073L12.0001 8.91436L4.20718 16.7073L2.79297 15.293L12.0001 6.08594Z"/>
  </symbol>
  <symbol viewBox="0 0 24 24" id="BrandLinkedin">
    <path fill-rule="evenodd" clip-rule="evenodd" d="M19.111 21H5.89A1.889 1.889 0 0 1 4 19.111V5.89C4 4.846 4.846 4 5.889 4H19.11C20.154 4 21 4.846 21 5.889V19.11A1.889 1.889 0 0 1 19.111 21Zm-2.995-2.36h2.523v-5.183c0-2.193-1.243-3.253-2.98-3.253-1.736 0-2.467 1.352-2.467 1.352v-1.102H10.76v8.185h2.432v-4.297c0-1.15.53-1.836 1.544-1.836.932 0 1.38.658 1.38 1.836v4.297ZM6.361 7.871c0 .834.67 1.51 1.499 1.51.828 0 1.499-.676 1.499-1.51s-.67-1.51-1.499-1.51c-.828 0-1.5.676-1.5 1.51ZM9.14 18.639H6.605v-8.185H9.14v8.185Z"/>
  </symbol>
  <symbol viewBox="0 0 24 24" id="arrow_down">
    <path d="M13 16.0858L18.293 10.7928L19.7072 12.2071L12.0001 19.9142L4.29297 12.2071L5.70718 10.7928L11 16.0857V4.5H13V16.0858Z"/>
  </symbol>
  <symbol viewBox="0 0 24 24" id="notification">
    <path d="M18 9.5C18 12.6 19.9 16.1 19.9 16.1L20 16.3V18H4V16.3L4.1 16.1C4.1 16.1 6 12.6 6 9.5C6 7.7 6.8 6.1 8 5C8.5 4.6 9 4.3 9.6 4C9.65 3.95 9.725 3.925 9.8 3.9C9.875 3.875 9.95 3.85 10 3.8C10.1 2.8 10.9 2 12 2C13.1 2 13.9 2.8 14 3.8C14.05 3.85 14.125 3.875 14.2 3.9C14.275 3.925 14.35 3.95 14.4 4C15 4.2 15.5 4.6 16 5C17.2 6.1 18 7.7 18 9.5ZM7.5 9.5C7.5 12.4 6.1 15.5 5.6 16.5H18.4C17.9 15.5 16.5 12.4 16.5 9.5C16.5 8.8 16.3 8.1 16 7.5C15.6 6.6 14.9 5.9 14 5.5C13.4 5.2 12.7 5 12 5C11.3 5 10.6 5.2 10 5.5C9.1 5.9 8.4 6.6 8 7.5C7.7 8.1 7.5 8.8 7.5 9.5ZM14.5 19.5C14.5 20.9 13.4 22 12 22C10.6 22 9.5 20.9 9.5 19.5H14.5Z"/>
  </symbol>
  <symbol viewBox="0 0 24 24" id="chevron_down-fill">
    <path d="M12.0011 14.2323L3.88495 6.11621L2.11719 7.88398L12.0011 17.7679L21.885 7.88398L20.1172 6.11621L12.0011 14.2323Z"/>
  </symbol>
  <symbol viewBox="0 0 24 24" id="play">
    <path d="M17.875 10.484C19.0417 11.1576 19.0417 12.8415 17.875 13.5151L8.875 18.7112C7.70833 19.3848 6.25 18.5428 6.25 17.1957L6.25 6.80339C6.25 5.45624 7.70833 4.61427 8.875 5.28785L17.875 10.484ZM17.125 12.2161C17.2917 12.1198 17.2917 11.8793 17.125 11.783L8.125 6.58689C7.95833 6.49066 7.75 6.61094 7.75 6.80339L7.75 17.1957C7.75 17.3881 7.95833 17.5084 8.125 17.4122L17.125 12.2161Z"/>
  </symbol>
  <symbol viewBox="0 0 24 24" id="heart-fill">
    <path d="M12 20.3254L10.9 19.3254C9.23333 17.8254 7.85833 16.5337 6.775 15.4504C5.69167 14.3671 4.83333 13.4044 4.2 12.5624C3.56667 11.7211 3.125 10.9544 2.875 10.2624C2.625 9.57106 2.5 8.86706 2.5 8.15039C2.5 6.73372 2.97933 5.54606 3.938 4.58739C4.896 3.62939 6.08333 3.15039 7.5 3.15039C8.36667 3.15039 9.19167 3.35439 9.975 3.76239C10.7583 4.17106 11.4333 4.75872 12 5.52539C12.5667 4.75872 13.2417 4.17106 14.025 3.76239C14.8083 3.35439 15.6333 3.15039 16.5 3.15039C17.9167 3.15039 19.104 3.62939 20.062 4.58739C21.0207 5.54606 21.5 6.73372 21.5 8.15039C21.5 8.86706 21.375 9.57106 21.125 10.2624C20.875 10.9544 20.4333 11.7211 19.8 12.5624C19.1667 13.4044 18.3083 14.3671 17.225 15.4504C16.1417 16.5337 14.7667 17.8254 13.1 19.3254L12 20.3254Z"/>
  </symbol>
  <symbol viewBox="0 0 24 24" id="close-fill">
    <path d="M17.5977 4.64258L19.3548 6.39969L13.7548 11.9997L19.3548 17.5997L17.5977 19.3568L11.9977 13.7568L6.39773 19.3568L4.64062 17.5997L10.2406 11.9997L4.64063 6.39969L6.39773 4.64258L11.9977 10.2426L17.5977 4.64258Z"/>
  </symbol>
  <symbol viewBox="0 0 24 24" id="copy-fill">
    <path d="M7.5 2.5H20V18H7.5V2.5ZM5.5 20.0002H15.8V21.5002H4V6.7002H5.5V20.0002Z"/>
  </symbol>
  <symbol viewBox="0 0 24 24" id="person-fill">
    <path d="M12 12C14.7614 12 17 9.76142 17 7C17 4.23858 14.7614 2 12 2C9.23858 2 7 4.23858 7 7C7 9.76142 9.23858 12 12 12ZM19 22H20C20 17.5817 16.4183 14 12 14C7.58172 14 4 17.5817 4 22H5H6H18H19Z"/>
  </symbol>
  <symbol viewBox="0 0 25 24" id="printer">
    <path d="M19.2617 7V3H5.26172V7H2.26172V17H5.26172V21H19.2617V17H22.2617V7H19.2617ZM6.76172 4.5H17.7617V7H6.76172V4.5ZM17.7617 19.5H6.76172V12.5H17.7617V19.5ZM20.7617 15.5H19.2617V11H5.26172V15.5H3.76172V8.5H20.7617V15.5ZM8.26172 17.7002H16.2617V17.0002V16.7002H8.26172V17.7002ZM8.26172 14.2998H16.2617V15.2998H8.26172V14.2998Z"/>
  </symbol>
  <symbol viewBox="0 0 24 24" id="shield-fill">
    <path d="M12 2L3 4.9V10.6C3 15.4 6.3 19.7 11.7 21.8L12 22L12.3 21.9C17.7 19.8 21 15.5 21 10.7V4.9L12 2ZM11 15.5L7 11.5L8.1 10.4L11.1 13.4L16 8.5L17 9.6L11 15.5Z"/>
  </symbol>
  <symbol viewBox="0 0 24 24" id="complete-fill">
    <path d="M12 2C6.5 2 2 6.5 2 12C2 17.5 6.5 22 12 22C17.5 22 22 17.5 22 12C22 6.5 17.5 2 12 2ZM11.2 16L7.2 12L8.3 10.9L11.3 13.9L16.1 9L17.2 10.1L11.2 16Z"/>
  </symbol>
  <symbol viewBox="0 0 24 24" id="more">
    <path d="M6.23042 13.5C5.81794 13.5 5.46482 13.3531 5.17107 13.0593C4.87734 12.7656 4.73047 12.4125 4.73047 12C4.73047 11.5875 4.87734 11.2344 5.17107 10.9406C5.46482 10.6469 5.81794 10.5 6.23042 10.5C6.64292 10.5 6.99604 10.6469 7.28977 10.9406C7.58352 11.2344 7.73039 11.5875 7.73039 12C7.73039 12.4125 7.58352 12.7656 7.28977 13.0593C6.99604 13.3531 6.64292 13.5 6.23042 13.5ZM11.9996 13.5C11.5872 13.5 11.234 13.3531 10.9403 13.0593C10.6465 12.7656 10.4997 12.4125 10.4997 12C10.4997 11.5875 10.6465 11.2344 10.9403 10.9406C11.234 10.6469 11.5872 10.5 11.9996 10.5C12.4121 10.5 12.7652 10.6469 13.059 10.9406C13.3527 11.2344 13.4996 11.5875 13.4996 12C13.4996 12.4125 13.3527 12.7656 13.059 13.0593C12.7652 13.3531 12.4121 13.5 11.9996 13.5ZM17.7689 13.5C17.3564 13.5 17.0033 13.3531 16.7095 13.0593C16.4158 12.7656 16.2689 12.4125 16.2689 12C16.2689 11.5875 16.4158 11.2344 16.7095 10.9406C17.0033 10.6469 17.3564 10.5 17.7689 10.5C18.1814 10.5 18.5345 10.6469 18.8282 10.9406C19.122 11.2344 19.2688 11.5875 19.2688 12C19.2688 12.4125 19.122 12.7656 18.8282 13.0593C18.5345 13.3531 18.1814 13.5 17.7689 13.5Z"/>
  </symbol>
  <symbol viewBox="0 0 24 24" id="BrandX">
    <path d="M13.6774 10.6218L20.2342 3H18.6805L12.9872 9.61788L8.43998 3H3.19531L10.0716 13.0074L3.19531 21H4.74916L10.7614 14.0113L15.5636 21H20.8083L13.677 10.6218H13.6774ZM11.5492 13.0956L10.8525 12.0991L5.30903 4.16971H7.69564L12.1693 10.5689L12.866 11.5655L18.6812 19.8835H16.2946L11.5492 13.096V13.0956Z"/>
  </symbol>
  <symbol viewBox="0 0 24 24" id="trash">
    <path d="M7.3077 20.4998C6.80898 20.4998 6.38302 20.3232 6.02982 19.97C5.67661 19.6168 5.5 19.1908 5.5 18.6921V5.99981H4.5V4.49983H8.99997V3.61523H15V4.49983H19.5V5.99981H18.5V18.6921C18.5 19.1972 18.325 19.6248 17.975 19.9748C17.625 20.3248 17.1974 20.4998 16.6922 20.4998H7.3077ZM17 5.99981H6.99997V18.6921C6.99997 18.7818 7.02882 18.8556 7.08652 18.9133C7.14422 18.971 7.21795 18.9998 7.3077 18.9998H16.6922C16.7692 18.9998 16.8397 18.9678 16.9038 18.9037C16.9679 18.8395 17 18.769 17 18.6921V5.99981ZM9.40385 16.9998H10.9038V7.99981H9.40385V16.9998ZM13.0961 16.9998H14.5961V7.99981H13.0961V16.9998Z"/>
  </symbol>
  <symbol viewBox="0 0 24 24" id="lock-fill">
    <path d="M6.3 21.5C5.8 21.5 5.375 21.325 5.025 20.975C4.675 20.625 4.5 20.2 4.5 19.7V10.3C4.5 9.8 4.675 9.375 5.025 9.025C5.375 8.675 5.8 8.5 6.3 8.5H7.5V6.5C7.5 5.25 7.93733 4.18733 8.812 3.312C9.68733 2.43733 10.75 2 12 2C13.25 2 14.3127 2.43733 15.188 3.312C16.0627 4.18733 16.5 5.25 16.5 6.5V8.5H17.7C18.2 8.5 18.625 8.675 18.975 9.025C19.325 9.375 19.5 9.8 19.5 10.3V19.7C19.5 20.2 19.325 20.625 18.975 20.975C18.625 21.325 18.2 21.5 17.7 21.5H6.3ZM12 16.75C12.4833 16.75 12.896 16.5793 13.238 16.238C13.5793 15.896 13.75 15.4833 13.75 15C13.75 14.5167 13.5793 14.104 13.238 13.762C12.896 13.4207 12.4833 13.25 12 13.25C11.5167 13.25 11.104 13.4207 10.762 13.762C10.4207 14.104 10.25 14.5167 10.25 15C10.25 15.4833 10.4207 15.896 10.762 16.238C11.104 16.5793 11.5167 16.75 12 16.75ZM9 8.5H15V6.5C15 5.66667 14.7083 4.95833 14.125 4.375C13.5417 3.79167 12.8333 3.5 12 3.5C11.1667 3.5 10.4583 3.79167 9.875 4.375C9.29167 4.95833 9 5.66667 9 6.5V8.5Z"/>
  </symbol>
  <symbol viewBox="0 0 25 24" id="yen-fill">
    <path d="M12.2617 2C6.76172 2 2.26172 6.5 2.26172 12C2.26172 17.5 6.76172 22 12.2617 22C17.7617 22 22.2617 17.5 22.2617 12C22.2617 6.5 17.7617 2 12.2617 2ZM16.2617 11.6V12.6H12.9617V14.4H16.2617V15.4H12.9617V18H11.6617V15.4H8.26172V14.4H11.5617V12.6H8.26172V11.6H10.8617L8.06172 7H9.56172L12.2617 11.4L14.9617 7H16.4617L13.6617 11.6H16.2617Z"/>
  </symbol>
  <symbol viewBox="0 0 24 24" id="new_window-fill">
    <path d="M6.25 3.5C4.73122 3.5 3.5 4.73122 3.5 6.25V17.75C3.5 19.2688 4.73122 20.5 6.25 20.5H17.75C19.2688 20.5 20.5 19.2688 20.5 17.75V13.5H18V17.75C18 17.8881 17.8881 18 17.75 18H6.25C6.11193 18 6 17.8881 6 17.75V6.25C6 6.11193 6.11193 6 6.25 6H10.5V3.5H6.25Z"/>
    <path d="M20.5 3.5V10.5H18V7.76783L11.884 13.8839L10.1162 12.1161L16.2323 6.00001L13.5 6.00002L13.5 3.50002L20.5 3.5Z"/>
  </symbol>
  <symbol viewBox="0 0 25 24" id="display-fill">
    <path d="M3.12891 16.5004H10.6289V19.5004H7.62891V21.0004H16.6289V19.5004H13.6289V16.5004H21.1289V4.90039H3.12891V16.5004Z"/>
  </symbol>
  <symbol viewBox="0 0 24 24" id="edit">
    <path d="M5.1562 19H6.39272L15.6524 9.74036L14.4159 8.50381L5.1562 17.7635V19ZM18.86 8.65576L15.4851 5.31158L16.7889 4.00776C17.0825 3.71417 17.4395 3.56738 17.86 3.56738C18.2805 3.56738 18.6376 3.71417 18.9312 4.00776L20.1485 5.22503C20.4421 5.51862 20.594 5.87053 20.6042 6.28078C20.6145 6.69103 20.4728 7.04295 20.1792 7.33653L18.86 8.65576ZM17.7754 9.75573L7.03118 20.5H3.65625V17.125L14.4005 6.38078L17.7754 9.75573Z"/>
  </symbol>
  <symbol viewBox="0 0 25 25" id="document_certificate">
    <path d="M17.2234 2.42383H4.52344V22.4238H20.5234V5.62383L17.2234 2.42383ZM6.02344 20.9238V3.92383H16.5234V6.42383H19.0234V20.9238H6.02344ZM17.0234 7.92383H8.02344V9.42383H17.0234V7.92383ZM8.02344 10.9238H17.0234V12.4238H8.02344V10.9238ZM12.5234 13.9238H8.02344V15.4238H12.5234V13.9238ZM17.5234 17.4238C17.5234 18.5284 16.628 19.4238 15.5234 19.4238C14.4189 19.4238 13.5234 18.5284 13.5234 17.4238C13.5234 16.3193 14.4189 15.4238 15.5234 15.4238C16.628 15.4238 17.5234 16.3193 17.5234 17.4238Z"/>
  </symbol>
  <symbol viewBox="0 0 25 25" id="sticker_id-fill">
    <path d="M19.3906 4.92383H2.39062V19.9238H22.3906V7.92383C21.1906 6.72383 20.5906 6.12383 19.3906 4.92383ZM11.8906 8.52383H16.8906V9.82383H11.8906V8.52383ZM7.79063 8.52383C8.79063 8.52383 9.59062 9.32383 9.59062 10.4238C9.59062 11.4238 8.79063 12.2238 7.79063 12.2238C6.79063 12.2238 5.89062 11.4238 5.89062 10.4238C5.89062 9.32383 6.69063 8.52383 7.79063 8.52383ZM18.4906 16.3238H5.89062V15.0238H18.4906V16.3238ZM18.4906 13.0238H11.8906V11.7238H18.4906V13.0238ZM18.3906 8.92383V6.42383L20.8906 8.92383H18.3906Z"/>
  </symbol>
  <symbol viewBox="0 0 24 24" id="arrow-line_up">
    <path d="M5 6H19V4H5V6Z"/>
    <path d="M12.0001 6.08582L19.7072 13.7929L18.293 15.2071L13 9.91417V21.5H11V9.91432L5.70718 15.2071L4.29297 13.7929L12.0001 6.08582Z"/>
  </symbol>
  <symbol viewBox="0 0 24 24" id="BrandFacebook">
    <path d="M22 12.0371C22 6.51426 17.5228 2.03711 12 2.03711C6.47715 2.03711 2 6.51426 2 12.0371C2 16.7269 5.22862 20.662 9.58423 21.7426V15.093H7.52214V12.0371H9.58423V10.7204C9.58423 7.31668 11.1246 5.73907 14.4661 5.73907C15.0997 5.73907 16.1928 5.86329 16.64 5.98751V8.75765C16.404 8.73281 15.9941 8.72039 15.4848 8.72039C13.845 8.72039 13.2115 9.3415 13.2115 10.9564V12.0371H16.4779L15.9167 15.093H13.2115V21.9639C18.1629 21.3658 22 17.1498 22 12.0371Z"/>
  </symbol>
  <symbol viewBox="0 0 24 24" id="information-fill">
    <path d="M12 22C17.5228 22 22 17.5228 22 12C22 6.47715 17.5228 2 12 2C6.47715 2 2 6.47715 2 12C2 17.5228 6.47715 22 12 22ZM10.5 8C10.5 7.55 10.65 7.25 10.95 6.95C11.25 6.65 11.55 6.5 12 6.5C12.45 6.5 12.75 6.65 13.05 6.95C13.35 7.25 13.5 7.55 13.5 8C13.5 8.45 13.35 8.75 13.05 9.05C12.75 9.35 12.45 9.5 12 9.5C11.55 9.5 11.25 9.35 10.95 9.05C10.65 8.75 10.5 8.45 10.5 8ZM11 16V12.5H10V10.5H13V16H14.5V18H9.5V16H11Z"/>
  </symbol>
  <symbol viewBox="0 0 24 24" id="arrow-line_left">
    <path d="M6 19.0002L6 5.00015L4 5.00015L4 19.0002H6Z"/>
    <path d="M6.08582 12.0001L13.7929 4.29297L15.2071 5.70718L9.91417 11.0002L21.5 11.0002V13.0002H9.91432L15.2071 18.293L13.7929 19.7072L6.08582 12.0001Z"/>
  </symbol>
  <symbol viewBox="0 0 24 24" id="history-fill">
    <path d="M13.7016 2.79963C16.2016 2.89963 18.5016 4.09963 20.1016 5.89963C23.5016 9.69963 23.1016 15.5996 19.2016 18.8996C17.5016 20.3996 15.4016 21.1996 13.1016 21.1996C10.5016 21.1996 8.00156 20.0996 6.20156 18.0996L6.00156 17.8996L7.50156 16.5996L7.70156 16.7996C10.3016 19.7996 14.9016 19.9996 17.9016 17.3996C20.9016 14.7996 21.1016 10.1996 18.5016 7.19963C15.9016 4.19963 11.3016 3.99963 8.30156 6.59963C6.90156 7.79963 6.10156 9.49963 5.90156 11.3996L7.80156 9.49963L9.30156 10.8996L4.90156 15.1996L0.601562 10.8996L2.00156 9.49963L3.90156 11.3996C4.10156 8.99963 5.20156 6.69963 7.00156 5.09963C8.90156 3.39963 11.2016 2.59963 13.7016 2.79963ZM11.7031 12.7993V7.29932H13.7031V11.9993L17.1031 15.2993L15.7031 16.6993L11.7031 12.7993Z"/>
  </symbol>
  <symbol viewBox="0 0 25 24" id="idcard-fill">
    <path d="M1.56641 20H22.5664V4H1.56641V20ZM12.5664 8.1H19.0664V9.4H12.5664V8.1ZM12.5664 11.3H19.0664V12.6H12.5664V11.3ZM12.5664 14.6H19.0664V15.9H12.5664V14.6ZM5.06641 8.1H10.5664V15.9H9.66641H5.06641V8.1Z"/>
  </symbol>
  <symbol viewBox="0 0 24 24" id="pdf"><path d="M8.25 17.75H15.75V16.25H8.25V17.75ZM8.25 13.75H15.75V12.25H8.25V13.75ZM6.3077 21.5C5.80257 21.5 5.375 21.325 5.025 20.975C4.675 20.625 4.5 20.1974 4.5 19.6923V4.3077C4.5 3.80257 4.675 3.375 5.025 3.025C5.375 2.675 5.80257 2.5 6.3077 2.5H14.25L19.5 7.74995V19.6923C19.5 20.1974 19.325 20.625 18.975 20.975C18.625 21.325 18.1974 21.5 17.6922 21.5H6.3077ZM13.5 8.49995V3.99998H6.3077C6.23077 3.99998 6.16024 4.03203 6.09612 4.09613C6.03202 4.16024 5.99997 4.23077 5.99997 4.3077V19.6923C5.99997 19.7692 6.03202 19.8397 6.09612 19.9038C6.16024 19.9679 6.23077 20 6.3077 20H17.6922C17.7692 20 17.8397 19.9679 17.9038 19.9038C17.9679 19.8397 18 19.7692 18 19.6923V8.49995H13.5Z"/></symbol>
  <symbol viewBox="0 0 24 24" id="chevron_down">
    <path d="M12.0001 14.5859L4.20718 6.79297L2.79297 8.20718L12.0001 17.4143L21.2072 8.20718L19.793 6.79297L12.0001 14.5859Z"/>
  </symbol>
  <symbol viewBox="0 0 24 24" id="pdf-fill"><path d="M8.25 17.75H15.75V16.25H8.25V17.75ZM8.25 13.75H15.75V12.25H8.25V13.75ZM6.3077 21.5C5.80257 21.5 5.375 21.325 5.025 20.975C4.675 20.625 4.5 20.1974 4.5 19.6923V4.3077C4.5 3.80257 4.675 3.375 5.025 3.025C5.375 2.675 5.80257 2.5 6.3077 2.5H14.25L19.5 7.74995V19.6923C19.5 20.1974 19.325 20.625 18.975 20.975C18.625 21.325 18.1974 21.5 17.6922 21.5H6.3077ZM13.5 8.49995H18L13.5 3.99998V8.49995Z"/></symbol>
  <symbol viewBox="0 0 24 24" id="chevron_right-fill">
    <path d="M15.2333 12.0001L7.11719 3.88398L8.88495 2.11621L18.7688 12.0001L8.88495 21.884L7.11719 20.1162L15.2333 12.0001Z"/>
  </symbol>
  <symbol viewBox="0 0 24 24" id="arrow_up-fill">
    <path d="M20.385 12.1163L12.0011 3.73242L3.61719 12.1163L5.38495 13.8841L10.751 8.51805V20.0002H13.251V8.51786L18.6172 13.8841L20.385 12.1163Z"/>
  </symbol>
  <symbol viewBox="0 0 24 24" id="subtract-fill">
    <path d="M2.5 10.75H21.5V13.25H2.5V10.75Z"/>
  </symbol>
  <symbol viewBox="0 0 24 24" id="language">
    <path d="M12 21.5C10.6974 21.5 9.46825 21.2503 8.3125 20.7509C7.15673 20.2516 6.14872 19.5718 5.28845 18.7115C4.4282 17.8512 3.7484 16.8432 3.24905 15.6875C2.74968 14.5317 2.5 13.3025 2.5 12C2.5 10.6872 2.74968 9.45543 3.24905 8.3048C3.7484 7.15417 4.4282 6.14872 5.28845 5.28845C6.14872 4.4282 7.15673 3.7484 8.3125 3.24905C9.46825 2.74968 10.6974 2.5 12 2.5C13.3128 2.5 14.5445 2.74968 15.6952 3.24905C16.8458 3.7484 17.8512 4.4282 18.7115 5.28845C19.5718 6.14872 20.2516 7.15417 20.7509 8.3048C21.2503 9.45543 21.5 10.6872 21.5 12C21.5 13.3025 21.2503 14.5317 20.7509 15.6875C20.2516 16.8432 19.5718 17.8512 18.7115 18.7115C17.8512 19.5718 16.8458 20.2516 15.6952 20.7509C14.5445 21.2503 13.3128 21.5 12 21.5ZM12 19.9788C12.5102 19.3019 12.9397 18.6192 13.2885 17.9307C13.6372 17.2423 13.9211 16.4897 14.1404 15.673H9.85958C10.0916 16.5153 10.3788 17.2807 10.7211 17.9692C11.0634 18.6577 11.4897 19.3275 12 19.9788ZM10.0635 19.7038C9.68014 19.1538 9.33591 18.5285 9.03078 17.8279C8.72564 17.1272 8.48846 16.4089 8.31922 15.673H4.92688C5.45509 16.7115 6.16343 17.584 7.0519 18.2904C7.94038 18.9968 8.94424 19.4679 10.0635 19.7038ZM13.9365 19.7038C15.0557 19.4679 16.0596 18.9968 16.9481 18.2904C17.8365 17.584 18.5449 16.7115 19.0731 15.673H15.6807C15.4794 16.4153 15.2262 17.1368 14.9211 17.8375C14.616 18.5381 14.2878 19.1602 13.9365 19.7038ZM4.29805 14.1731H8.01538C7.95256 13.8013 7.90705 13.4369 7.87885 13.0798C7.85065 12.7227 7.83655 12.3628 7.83655 12C7.83655 11.6372 7.85065 11.2772 7.87885 10.9202C7.90705 10.5631 7.95256 10.1987 8.01538 9.82688H4.29805C4.2019 10.1666 4.12818 10.5198 4.0769 10.8865C4.02562 11.2532 3.99998 11.6243 3.99998 12C3.99998 12.3756 4.02562 12.7468 4.0769 13.1135C4.12818 13.4801 4.2019 13.8333 4.29805 14.1731ZM9.51535 14.1731H14.4846C14.5474 13.8013 14.5929 13.4401 14.6212 13.0894C14.6494 12.7388 14.6635 12.3756 14.6635 12C14.6635 11.6243 14.6494 11.2612 14.6212 10.9106C14.5929 10.5599 14.5474 10.1987 14.4846 9.82688H9.51535C9.45253 10.1987 9.40702 10.5599 9.3788 10.9106C9.3506 11.2612 9.3365 11.6243 9.3365 12C9.3365 12.3756 9.3506 12.7388 9.3788 13.0894C9.40702 13.4401 9.45253 13.8013 9.51535 14.1731ZM15.9846 14.1731H19.7019C19.7981 13.8333 19.8718 13.4801 19.9231 13.1135C19.9743 12.7468 20 12.3756 20 12C20 11.6243 19.9743 11.2532 19.9231 10.8865C19.8718 10.5198 19.7981 10.1666 19.7019 9.82688H15.9846C16.0474 10.1987 16.0929 10.5631 16.1211 10.9202C16.1493 11.2772 16.1634 11.6372 16.1634 12C16.1634 12.3628 16.1493 12.7227 16.1211 13.0798C16.0929 13.4369 16.0474 13.8013 15.9846 14.1731ZM15.6807 8.32693H19.0731C18.5384 7.27563 17.8349 6.40318 16.9625 5.70958C16.09 5.01599 15.0814 4.54163 13.9365 4.2865C14.3198 4.86855 14.6608 5.50509 14.9596 6.19613C15.2583 6.88716 15.4987 7.59743 15.6807 8.32693ZM9.85958 8.32693H14.1404C13.9083 7.49103 13.6163 6.72083 13.2644 6.01633C12.9125 5.31184 12.491 4.64678 12 4.02113C11.5089 4.64678 11.0875 5.31184 10.7356 6.01633C10.3836 6.72083 10.0916 7.49103 9.85958 8.32693ZM4.92688 8.32693H8.31922C8.50127 7.59743 8.74167 6.88716 9.0404 6.19613C9.33912 5.50509 9.68014 4.86855 10.0635 4.2865C8.91219 4.54163 7.90193 5.0176 7.03268 5.7144C6.16344 6.4112 5.46151 7.28204 4.92688 8.32693Z"/>
  </symbol>
  <symbol viewBox="0 0 24 24" id="radiobutton-on">
    <path d="M12 16.5C13.25 16.5 14.3127 16.0627 15.188 15.188C16.0627 14.3127 16.5 13.25 16.5 12C16.5 10.75 16.0627 9.68733 15.188 8.812C14.3127 7.93733 13.25 7.5 12 7.5C10.75 7.5 9.68733 7.93733 8.812 8.812C7.93733 9.68733 7.5 10.75 7.5 12C7.5 13.25 7.93733 14.3127 8.812 15.188C9.68733 16.0627 10.75 16.5 12 16.5ZM12 21.5C10.6833 21.5 9.446 21.25 8.288 20.75C7.12933 20.25 6.125 19.575 5.275 18.725C4.425 17.875 3.75 16.8707 3.25 15.712C2.75 14.554 2.5 13.3167 2.5 12C2.5 10.6833 2.75 9.44567 3.25 8.287C3.75 7.129 4.425 6.125 5.275 5.275C6.125 4.425 7.12933 3.75 8.288 3.25C9.446 2.75 10.6833 2.5 12 2.5C13.3167 2.5 14.5543 2.75 15.713 3.25C16.871 3.75 17.875 4.425 18.725 5.275C19.575 6.125 20.25 7.129 20.75 8.287C21.25 9.44567 21.5 10.6833 21.5 12C21.5 13.3167 21.25 14.554 20.75 15.712C20.25 16.8707 19.575 17.875 18.725 18.725C17.875 19.575 16.871 20.25 15.713 20.75C14.5543 21.25 13.3167 21.5 12 21.5ZM12 20C14.2333 20 16.125 19.225 17.675 17.675C19.225 16.125 20 14.2333 20 12C20 9.76667 19.225 7.875 17.675 6.325C16.125 4.775 14.2333 4 12 4C9.76667 4 7.875 4.775 6.325 6.325C4.775 7.875 4 9.76667 4 12C4 14.2333 4.775 16.125 6.325 17.675C7.875 19.225 9.76667 20 12 20Z"/>
  </symbol>
  <symbol viewBox="0 0 24 24" id="chevron_up-fill">
    <path d="M12.0011 5.73242L21.885 15.6163L20.1172 17.3841L12.0011 9.26796L3.88495 17.3841L2.11719 15.6163L12.0011 5.73242Z"/>
  </symbol>
  <symbol viewBox="0 0 24 24" id="document-fill">
    <path d="M8.25 17.75H15.75V16.25H8.25V17.75ZM8.25 13.75H15.75V12.25H8.25V13.75ZM6.3077 21.5C5.80257 21.5 5.375 21.325 5.025 20.975C4.675 20.625 4.5 20.1974 4.5 19.6923V4.3077C4.5 3.80257 4.675 3.375 5.025 3.025C5.375 2.675 5.80257 2.5 6.3077 2.5H14.25L19.5 7.74995V19.6923C19.5 20.1974 19.325 20.625 18.975 20.975C18.625 21.325 18.1974 21.5 17.6922 21.5H6.3077ZM13.5 8.49995H18L13.5 3.99998V8.49995Z"/>
  </symbol>
  <symbol viewBox="0 0 25 24" id="display">
    <path d="M21.1289 16.5004V4.90039H3.12891V16.5004H10.6289V19.5004H7.62891V21.0004H16.6289V19.5004H13.6289V16.5004H21.1289ZM4.62891 6.40039H19.6289V15.0004H4.62891V6.40039Z"/>
  </symbol>
  <symbol viewBox="0 0 24 24" id="pause-fill">
    <path d="M7 5.25C6.0335 5.25 5.25 6.0335 5.25 7V17C5.25 17.9665 6.0335 18.75 7 18.75H9C9.9665 18.75 10.75 17.9665 10.75 17V7C10.75 6.0335 9.9665 5.25 9 5.25H7Z"/>
    <path d="M15 5.25C14.0335 5.25 13.25 6.0335 13.25 7V17C13.25 17.9665 14.0335 18.75 15 18.75H17C17.9665 18.75 18.75 17.9665 18.75 17V7C18.75 6.0335 17.9665 5.25 17 5.25H15Z"/>
  </symbol>
  <symbol viewBox="0 0 25 25" id="calendar">
    <path d="M19.0742 4.85352H18.0742V2.85352H16.0742V4.85352H8.07422V2.85352H6.07422V4.85352H5.07422C3.96422 4.85352 3.07422 5.75352 3.07422 6.85352V20.8535C3.07422 21.9535 3.96422 22.8535 5.07422 22.8535H19.0742C20.1742 22.8535 21.0742 21.9535 21.0742 20.8535V6.85352C21.0742 5.75352 20.1742 4.85352 19.0742 4.85352ZM19.0742 20.8535H5.07422V9.85352H19.0742V20.8535ZM6.57422 13.8535C6.57422 12.4735 7.69422 11.3535 9.07422 11.3535C10.4542 11.3535 11.5742 12.4735 11.5742 13.8535C11.5742 15.2335 10.4542 16.3535 9.07422 16.3535C7.69422 16.3535 6.57422 15.2335 6.57422 13.8535Z"/>
  </symbol>
  <symbol viewBox="0 0 24 24" id="calendar-fill">
    <path d="M6 2h2v2h8V2h2v2h1a2 2 0 0 1 2 2v2H3V6a2 2 0 0 1 2-2h1V2Z"/><path fill-rule="evenodd" clip-rule="evenodd" d="M3 9h18v11a2 2 0 0 1-2 2H5a2 2 0 0 1-2-2V9Zm5.5 6.5a2 2 0 1 0 0-4 2 2 0 0 0 0 4Z"/>
  </symbol>
  <symbol viewBox="0 0 25 24" id="yen">
    <path d="M2.26172 12C2.26172 17.5 6.76172 22 12.2617 22C17.7617 22 22.2617 17.5 22.2617 12C22.2617 6.5 17.7617 2 12.2617 2C6.76172 2 2.26172 6.5 2.26172 12ZM3.76172 12C3.76172 7.3 7.56172 3.5 12.2617 3.5C16.9617 3.5 20.7617 7.3 20.7617 12C20.7617 16.7 16.9617 20.5 12.2617 20.5C7.56172 20.5 3.76172 16.7 3.76172 12ZM12.2633 11.7L14.9633 7H16.6633L13.8633 12H16.2633V13H12.9633V14.5H16.2633V15.5H12.9633V18H11.4633V15.5H8.26328V14.5H11.4633V13H8.26328V12H10.6633L7.86328 7H9.56328L12.2633 11.7Z"/>
  </symbol>
  <symbol viewBox="0 0 24 24" id="upload">
    <path d="m19.828 10.44-1.414 1.414L13.62 7.06v10.586h-2V7.06l-4.793 4.793-1.414-1.414 7.207-7.208 7.207 7.208Z"/><path d="M5.621 16.647v2.5h14v-2.5h2v4.5h-18v-4.5h2Z"/>
  </symbol>
  <symbol viewBox="0 0 24 24" id="location-fill">
    <path fill-rule="evenodd" d="M5.987 15.637C7.313 17.596 9.317 19.718 12 22c2.683-2.283 4.688-4.404 6.012-6.363C19.337 13.68 20 11.867 20 10.2c0-2.5-.804-4.492-2.413-5.975C15.98 2.742 14.117 2 12 2c-2.117 0-3.98.742-5.588 2.225S4 7.7 4 10.2c0 1.667.662 3.48 1.987 5.438ZM12 12.25a2.25 2.25 0 1 0 0-4.5 2.25 2.25 0 0 0 0 4.5Z" clip-rule="evenodd"/>
  </symbol>
  <symbol viewBox="0 0 25 25" id="clock">
    <path fill-rule="evenodd" d="M20 12a8 8 0 1 1-16 0 8 8 0 0 1 16 0Zm2 0c0 5.523-4.477 10-10 10S2 17.523 2 12 6.477 2 12 2s10 4.477 10 10Zm-11 1.5V6h2v5.5h3.5v2H11Z"/>
  </symbol>
  <symbol viewBox="0 0 24 24" id="clock-fill">
    <path fill-rule="evenodd" clip-rule="evenodd" d="M22 12c0 5.523-4.477 10-10 10S2 17.523 2 12 6.477 2 12 2s10 4.477 10 10Zm-11 1V5.5h2V11h3.5v2H11Z"/>
  </symbol>
  <symbol viewBox="0 0 24 24" id="location">
    <path d="M16.525 14.2625C15.5417 15.7875 14.0333 17.4833 12 19.35C9.96667 17.4833 8.45833 15.7875 7.475 14.2625C6.49167 12.7375 6 11.3833 6 10.2C6 8.38333 6.57917 6.89583 7.7375 5.7375C8.89583 4.57917 10.3167 4 12 4C13.6833 4 15.1042 4.57917 16.2625 5.7375C17.4208 6.89583 18 8.38333 18 10.2C18 11.3833 17.5083 12.7375 16.525 14.2625ZM5.9875 15.6375C7.3125 17.5958 9.31667 19.7167 12 22C14.6833 19.7167 16.6875 17.5958 18.0125 15.6375C19.3375 13.6792 20 11.8667 20 10.2C20 7.7 19.1958 5.70833 17.5875 4.225C15.9792 2.74167 14.1167 2 12 2C9.88333 2 8.02083 2.74167 6.4125 4.225C4.80417 5.70833 4 7.7 4 10.2C4 11.8667 4.6625 13.6792 5.9875 15.6375ZM12 12.25C13.2426 12.25 14.25 11.2426 14.25 10C14.25 8.75736 13.2426 7.75 12 7.75C10.7574 7.75 9.75 8.75736 9.75 10C9.75 11.2426 10.7574 12.25 12 12.25Z"/>
  </symbol>
  <symbol viewBox="0 0 24 24" id="help">
    <path d="M2 12C2 17.5 6.5 22 12 22C17.5 22 22 17.5 22 12C22 6.5 17.5 2 12 2C6.5 2 2 6.5 2 12ZM3.5 12C3.5 7.3 7.3 3.5 12 3.5C16.7 3.5 20.5 7.3 20.5 12C20.5 16.7 16.7 20.5 12 20.5C7.3 20.5 3.5 16.7 3.5 12ZM13.0762 14.2501H11.0661L11.0506 14.0167C10.9449 12.432 11.5822 11.0602 12.7318 10.0151L12.7353 10.0119C13.0974 9.69506 13.2415 9.39266 13.2924 9.13855C13.3431 8.88504 13.3057 8.65688 13.2605 8.47302C13.0601 7.93121 12.4596 7.68359 11.8485 7.77247C11.2401 7.86097 10.75 8.26388 10.75 8.90008V9.15008H8.75V8.90008C8.75 6.94867 10.5839 5.43098 12.4355 5.75249C13.8905 5.91731 14.8435 6.89554 15.1422 8.06312C15.4397 9.22591 15.088 10.5724 13.9679 11.4858C13.3214 12.1373 12.9573 13.0608 13.0488 13.9752L13.0762 14.2501ZM13.25 16.5C13.25 17.1904 12.6904 17.75 12 17.75C11.3096 17.75 10.75 17.1904 10.75 16.5C10.75 15.8096 11.3096 15.25 12 15.25C12.6904 15.25 13.25 15.8096 13.25 16.5Z"/>
  </symbol>
  <symbol viewBox="0 0 24 24" id="pause">
    <path d="M7 5.25C6.0335 5.25 5.25 6.0335 5.25 7V17C5.25 17.9665 6.0335 18.75 7 18.75H9C9.9665 18.75 10.75 17.9665 10.75 17V7C10.75 6.0335 9.9665 5.25 9 5.25H7ZM6.75 7C6.75 6.86193 6.86193 6.75 7 6.75H9C9.13807 6.75 9.25 6.86193 9.25 7V17C9.25 17.1381 9.13807 17.25 9 17.25H7C6.86193 17.25 6.75 17.1381 6.75 17V7Z"/>
    <path d="M15 5.25C14.0335 5.25 13.25 6.0335 13.25 7V17C13.25 17.9665 14.0335 18.75 15 18.75H17C17.9665 18.75 18.75 17.9665 18.75 17V7C18.75 6.0335 17.9665 5.25 17 5.25H15ZM14.75 7C14.75 6.86193 14.8619 6.75 15 6.75H17C17.1381 6.75 17.25 6.86193 17.25 7V17C17.25 17.1381 17.1381 17.25 17 17.25H15C14.8619 17.25 14.75 17.1381 14.75 17V7Z"/>
  </symbol>
  <symbol viewBox="0 0 24 24" id="eye-open">
    <path d="M12.0008 15.575C13.1341 15.575 14.0964 15.179 14.8878 14.387C15.6798 13.5957 16.0758 12.6333 16.0758 11.5C16.0758 10.3667 15.6798 9.40433 14.8878 8.613C14.0964 7.821 13.1341 7.425 12.0008 7.425C10.8674 7.425 9.90511 7.821 9.11378 8.613C8.32178 9.40433 7.92578 10.3667 7.92578 11.5C7.92578 12.6333 8.32178 13.5957 9.11378 14.387C9.90511 15.179 10.8674 15.575 12.0008 15.575ZM12.0008 14.2C11.2508 14.2 10.6134 13.9373 10.0888 13.412C9.56345 12.8873 9.30078 12.25 9.30078 11.5C9.30078 10.75 9.56345 10.1123 10.0888 9.587C10.6134 9.06233 11.2508 8.8 12.0008 8.8C12.7508 8.8 13.3884 9.06233 13.9138 9.587C14.4384 10.1123 14.7008 10.75 14.7008 11.5C14.7008 12.25 14.4384 12.8873 13.9138 13.412C13.3884 13.9373 12.7508 14.2 12.0008 14.2ZM12.0008 18.5C9.70078 18.5 7.60511 17.8667 5.71378 16.6C3.82178 15.3333 2.43411 13.6333 1.55078 11.5C2.43411 9.36667 3.82178 7.66667 5.71378 6.4C7.60511 5.13333 9.70078 4.5 12.0008 4.5C14.3008 4.5 16.3968 5.13333 18.2888 6.4C20.1801 7.66667 21.5674 9.36667 22.4508 11.5C21.5674 13.6333 20.1801 15.3333 18.2888 16.6C16.3968 17.8667 14.3008 18.5 12.0008 18.5ZM12.0008 17C13.8841 17 15.6134 16.504 17.1888 15.512C18.7634 14.5207 19.9674 13.1833 20.8008 11.5C19.9674 9.81667 18.7634 8.479 17.1888 7.487C15.6134 6.49567 13.8841 6 12.0008 6C10.1174 6 8.38811 6.49567 6.81278 7.487C5.23811 8.479 4.03411 9.81667 3.20078 11.5C4.03411 13.1833 5.23811 14.5207 6.81278 15.512C8.38811 16.504 10.1174 17 12.0008 17Z"/>
  </symbol>
  <symbol viewBox="0 0 25 25" id="sticker_id">
    <path d="M19.8906 4.42383H1.89062V20.4238H22.8906V7.42383L19.8906 4.42383ZM3.39062 18.9238V5.92383H18.8906V8.42383H21.3906V18.9238H3.39062ZM7.89062 12.9238C8.99519 12.9238 9.89062 12.0284 9.89062 10.9238C9.89062 9.81926 8.99519 8.92383 7.89062 8.92383C6.78606 8.92383 5.89062 9.81926 5.89062 10.9238C5.89062 12.0284 6.78606 12.9238 7.89062 12.9238ZM11.8906 8.42383H17.3906V9.92383H11.8906V8.42383ZM18.9906 14.9238H5.89062V16.4238H18.9906V14.9238ZM11.8906 11.6235H18.9906V13.1235H11.8906V11.6235Z"/>
  </symbol>
  <symbol viewBox="0 0 24 24" id="invisible">
    <path d="M16.2445 13.05L15.1195 11.925C15.2695 11.0917 15.0322 10.346 14.4075 9.688C13.7822 9.02933 13.0195 8.775 12.1195 8.925L10.9945 7.8C11.2279 7.7 11.4612 7.625 11.6945 7.575C11.9279 7.525 12.1862 7.5 12.4695 7.5C13.6029 7.5 14.5652 7.896 15.3565 8.688C16.1485 9.47933 16.5445 10.4417 16.5445 11.575C16.5445 11.8583 16.5195 12.1207 16.4695 12.362C16.4195 12.604 16.3445 12.8333 16.2445 13.05ZM19.4195 16.15L18.3195 15.125C18.9529 14.6417 19.5155 14.1123 20.0075 13.537C20.4989 12.9623 20.9195 12.3083 21.2695 11.575C20.4362 9.89167 19.2402 8.554 17.6815 7.562C16.1235 6.57067 14.3862 6.075 12.4695 6.075C11.9862 6.075 11.5112 6.10833 11.0445 6.175C10.5779 6.24167 10.1195 6.34167 9.66953 6.475L8.49453 5.3C9.12786 5.05 9.77386 4.86667 10.4325 4.75C11.0905 4.63333 11.7695 4.575 12.4695 4.575C14.8195 4.575 16.9362 5.221 18.8195 6.513C20.7029 7.80433 22.0695 9.49167 22.9195 11.575C22.5529 12.475 22.0779 13.3123 21.4945 14.087C20.9112 14.8623 20.2195 15.55 19.4195 16.15ZM20.2195 21.95L16.1945 17.925C15.6779 18.125 15.1072 18.2833 14.4825 18.4C13.8572 18.5167 13.1862 18.575 12.4695 18.575C10.1195 18.575 8.00687 17.929 6.13153 16.637C4.25687 15.3457 2.8862 13.6583 2.01953 11.575C2.3862 10.6917 2.8612 9.86667 3.44453 9.1C4.02786 8.33333 4.66953 7.675 5.36953 7.125L2.59453 4.325L3.64453 3.25L21.2945 20.9L20.2195 21.95ZM6.41953 8.175C5.8862 8.59167 5.37386 9.096 4.88253 9.688C4.39053 10.2793 3.9862 10.9083 3.66953 11.575C4.50286 13.2583 5.69853 14.5957 7.25653 15.587C8.8152 16.579 10.5529 17.075 12.4695 17.075C12.9195 17.075 13.3695 17.0373 13.8195 16.962C14.2695 16.8873 14.6529 16.8083 14.9695 16.725L13.7195 15.425C13.5362 15.4917 13.3362 15.5457 13.1195 15.587C12.9029 15.629 12.6862 15.65 12.4695 15.65C11.3362 15.65 10.3739 15.254 9.58253 14.462C8.79053 13.6707 8.39453 12.7083 8.39453 11.575C8.39453 11.375 8.41553 11.1623 8.45753 10.937C8.49886 10.7123 8.55286 10.5083 8.61953 10.325L6.41953 8.175Z"/>
  </symbol>
  <symbol viewBox="0 0 24 24" id="BrandInstagram">
    <path d="M8.47965 3.55945C7.57525 3.60212 6.95764 3.74645 6.41772 3.95861C5.85893 4.17638 5.38531 4.46861 4.91407 4.94155C4.44283 5.41449 4.15264 5.88845 3.9364 6.44809C3.72713 6.9892 3.58535 7.60732 3.5454 8.51223C3.50545 9.41714 3.49661 9.70801 3.50103 12.0163C3.50545 14.3245 3.51565 14.6139 3.55951 15.5206C3.60269 16.4249 3.74651 17.0423 3.95867 17.5824C4.17678 18.1412 4.46867 18.6146 4.94178 19.0861C5.41489 19.5575 5.88851 19.847 6.44951 20.0636C6.99011 20.2725 7.6084 20.4149 8.51314 20.4546C9.41788 20.4942 9.70909 20.5033 12.0167 20.4989C14.3243 20.4945 14.6148 20.4843 15.5214 20.4413C16.428 20.3983 17.0422 20.2534 17.5825 20.0423C18.1413 19.8237 18.6151 19.5323 19.0861 19.059C19.5572 18.5857 19.8472 18.1114 20.0633 17.5515C20.2727 17.0109 20.415 16.3926 20.4543 15.4885C20.4939 14.5812 20.5032 14.2915 20.4988 11.9836C20.4944 9.67571 20.484 9.38637 20.441 8.47993C20.398 7.57349 20.254 6.95792 20.042 6.41749C19.8236 5.8587 19.532 5.38559 19.0591 4.91384C18.5862 4.44209 18.1115 4.15224 17.5517 3.93668C17.0108 3.72741 16.3928 3.58478 15.4881 3.54568C14.5833 3.50658 14.2921 3.49655 11.9837 3.50097C9.67526 3.50539 9.38626 3.51525 8.47965 3.55945ZM8.57893 18.9254C7.75018 18.8894 7.30019 18.7517 7.00031 18.6364C6.60319 18.4834 6.32031 18.2984 6.02145 18.0025C5.72259 17.7065 5.53899 17.4226 5.38395 17.0263C5.2675 16.7265 5.12725 16.277 5.08849 15.4482C5.04633 14.5525 5.03749 14.2836 5.03256 12.0142C5.02763 9.7449 5.0363 9.4763 5.07557 8.58023C5.11093 7.75216 5.24948 7.30166 5.36457 7.00195C5.51757 6.60432 5.70185 6.32195 5.9985 6.02326C6.29515 5.72457 6.5782 5.54063 6.97481 5.38559C7.27435 5.26863 7.72383 5.12957 8.55224 5.09013C9.44865 5.04763 9.71725 5.03913 11.9862 5.0342C14.2552 5.02927 14.5245 5.03777 15.4213 5.07721C16.2493 5.11325 16.7 5.25044 16.9994 5.36621C17.3967 5.51921 17.6794 5.70298 17.9781 6.00014C18.2768 6.2973 18.4609 6.57933 18.6159 6.97679C18.733 7.27548 18.8721 7.72479 18.9112 8.55371C18.9539 9.45012 18.9636 9.71889 18.9676 11.9877C18.9717 14.2565 18.9637 14.526 18.9245 15.4217C18.8882 16.2505 18.7509 16.7006 18.6355 17.0008C18.4825 17.3978 18.298 17.6808 18.0012 17.9794C17.7044 18.2779 17.4217 18.4618 17.0249 18.6169C16.7257 18.7336 16.2757 18.873 15.448 18.9125C14.5515 18.9546 14.2829 18.9635 12.0131 18.9684C9.74326 18.9733 9.47551 18.9642 8.5791 18.9254M15.5083 7.45704C15.5086 7.65879 15.5688 7.85591 15.6812 8.02347C15.7935 8.19102 15.9531 8.32149 16.1396 8.39837C16.3261 8.47525 16.5313 8.49509 16.7291 8.45538C16.9269 8.41566 17.1085 8.31818 17.2509 8.17526C17.3933 8.03234 17.4901 7.8504 17.5291 7.65245C17.5681 7.4545 17.5475 7.24944 17.4699 7.06319C17.3923 6.87695 17.2613 6.71789 17.0933 6.60613C16.9254 6.49437 16.728 6.43493 16.5263 6.43534C16.2558 6.43588 15.9966 6.54381 15.8057 6.73541C15.6148 6.92701 15.5079 7.18658 15.5083 7.45704ZM7.6356 12.0084C7.64036 14.419 9.59808 16.3688 12.0082 16.3642C14.4183 16.3596 16.3694 14.402 16.3648 11.9914C16.3602 9.58085 14.4019 7.63061 11.9915 7.63537C9.58108 7.64013 7.63101 9.59819 7.6356 12.0084ZM9.16662 12.0054C9.16552 11.445 9.33061 10.8969 9.64102 10.4303C9.95144 9.96374 10.3932 9.5997 10.9105 9.38422C11.4278 9.16875 11.9974 9.11151 12.5473 9.21975C13.0971 9.32799 13.6025 9.59684 13.9995 9.99231C14.3966 10.3878 14.6674 10.8921 14.7779 11.4415C14.8883 11.9909 14.8333 12.5607 14.6199 13.0789C14.4064 13.597 14.0442 14.0403 13.5788 14.3525C13.1135 14.6648 12.566 14.8321 12.0056 14.8332C11.6335 14.8339 11.2649 14.7614 10.9209 14.6197C10.5768 14.478 10.264 14.2699 10.0004 14.0074C9.73674 13.7448 9.52741 13.4328 9.38436 13.0893C9.2413 12.7458 9.16732 12.3775 9.16662 12.0054Z"/>
  </symbol>
  <symbol viewBox="0 0 24 24" id="notification-fill">
    <path d="M19.9 16.1L20 16.3V18H4V16.3L4.1 16.1C4.1 16.1 6 12.6 6 9.5C6 7.7 6.8 6.1 8 5C8.5 4.6 9 4.3 9.6 4C9.65 3.95 9.725 3.925 9.8 3.9C9.875 3.875 9.95 3.85 10 3.8C10.1 2.8 10.9 2 12 2C13.1 2 13.9 2.8 14 3.8C14.05 3.85 14.125 3.875 14.2 3.9C14.275 3.925 14.35 3.95 14.4 4C15 4.2 15.5 4.6 16 5C17.2 6.1 18 7.7 18 9.5C18 12.6 19.9 16.1 19.9 16.1ZM14.5 19.5C14.5 20.9 13.4 22 12 22C10.6 22 9.5 20.9 9.5 19.5H14.5Z"/>
  </symbol>
  <symbol viewBox="0 0 25 24" id="pension">
    <path d="M15.5586 16.5V15C18.8586 15 21.5586 12.3 21.5586 9C21.5586 5.7 18.8586 3 15.5586 3C12.2586 3 9.55859 5.7 9.55859 9C9.55859 9.8 9.65859 10.5 9.95859 11.2L8.55859 11.8C8.25859 10.9 8.05859 10 8.05859 9C8.05859 4.9 11.4586 1.5 15.5586 1.5C19.6586 1.5 23.0586 4.9 23.0586 9C23.0586 13.1 19.6586 16.5 15.5586 16.5ZM15.5578 8.4L17.1578 5.5H18.3578L16.6578 8.5H18.0578V9.5H16.0578V10.5H18.0578V11.5H16.0578V13H15.0578V11.5H13.0578V10.5H15.0578V9.5H13.0578V8.5H14.4578L12.7578 5.5H13.9578L15.5578 8.4ZM8.05937 19.0999L10.5594 22.4999L11.8594 21.6999L9.75937 17.1999C9.65937 16.8999 9.35938 16.6999 9.05937 16.5999L5.45938 15.8999V13.9999C5.57332 14.0455 5.68207 14.0911 5.78799 14.1355L5.78808 14.1355L5.78813 14.1355L5.78815 14.1355L5.78816 14.1355C6.14698 14.2859 6.47338 14.4227 6.85938 14.4999C7.85938 14.7999 8.95937 14.7999 9.95937 14.5999V13.1999C9.45938 13.1999 8.95939 13.0999 8.45939 12.9999L8.45938 12.9999C7.55938 12.7999 6.85938 12.3999 6.05937 11.7999C5.88806 11.6531 5.71675 11.4463 5.53224 11.2237C4.96284 10.5366 4.2678 9.69782 3.05938 9.99992C2.35938 10.1999 1.85938 10.7999 1.85938 11.5999V17.2999C1.85938 18.2999 2.65938 18.9999 3.55938 18.9999L8.05937 19.0999ZM12.5586 13C11.7586 13 11.0586 13.7 11.0586 14.5V15H12.0586V14.5C12.0586 14.2 12.2586 14 12.5586 14C12.8586 14 13.0586 14.2 13.0586 14.5V22.5H14.0586V14.5C14.0586 13.7 13.3586 13 12.5586 13ZM5.56094 7.1999C5.56094 8.19401 4.75505 8.9999 3.76094 8.9999C2.76683 8.9999 1.96094 8.19401 1.96094 7.1999C1.96094 6.20579 2.76683 5.3999 3.76094 5.3999C4.75505 5.3999 5.56094 6.20579 5.56094 7.1999Z"/>
  </symbol>
  <symbol viewBox="0 0 24 24" id="language-fill">
    <path d="M7.99 20.819c1.19.51 2.47.77 3.81.77 1.34 0 2.63-.26 3.81-.77a9.98 9.98 0 0 0 3.11-2.1c.88-.89 1.59-1.94 2.1-3.12.51-1.19.77-2.47.77-3.81 0-1.34-.26-2.63-.77-3.81a9.98 9.98 0 0 0-2.1-3.11 9.98 9.98 0 0 0-3.11-2.1c-2.35-1.02-5.23-1.03-7.62 0a9.91 9.91 0 0 0-3.12 2.1 9.98 9.98 0 0 0-2.1 3.11 9.573 9.573 0 0 0-.77 3.81c0 1.34.26 2.62.77 3.81a9.91 9.91 0 0 0 2.1 3.12c.89.88 1.93 1.59 3.12 2.1Zm2.8-3.2c-.28-.56-.52-1.19-.73-1.86h3.48c-.19.65-.44 1.26-.72 1.82-.28.56-.62 1.12-1.02 1.68-.4-.53-.73-1.08-1.01-1.64Zm-3.75.22a7.386 7.386 0 0 1-1.81-2.08l.01-.01h2.65a12.468 12.468 0 0 0 1.31 3.25c-.79-.25-1.51-.64-2.16-1.16Zm7.96-.1c.28-.64.52-1.3.71-1.98h2.67c-.48.81-1.09 1.51-1.81 2.08-.66.52-1.39.92-2.19 1.17.21-.39.42-.82.62-1.27Zm4.27-4.08h-3.14c.04-.26.07-.52.09-.77.03-.36.04-.73.04-1.1 0-.37-.01-.73-.04-1.1-.02-.25-.05-.51-.09-.77h3.14c.06.26.11.53.15.8.05.35.07.71.07 1.07 0 .36-.02.72-.07 1.07-.03.27-.09.54-.15.8Zm-5.24 0H9.57a12.529 12.529 0 0 1-.13-1.88 12.534 12.534 0 0 1 .13-1.88h4.46a12.534 12.534 0 0 1 .13 1.88 12.529 12.529 0 0 1-.13 1.88Zm-6.56 0H4.33c-.06-.26-.11-.53-.15-.8-.04-.35-.07-.71-.07-1.07 0-.36.02-.72.07-1.07.03-.27.09-.54.15-.8h3.14c-.04.26-.07.52-.09.77-.03.36-.04.73-.04 1.1 0 .37.01.73.04 1.1.02.25.05.51.09.77Zm10.89-5.85h-2.65c-.18-.66-.41-1.32-.68-1.95-.2-.45-.42-.89-.65-1.3a7 7 0 0 1 2.19 1.17c.71.56 1.31 1.26 1.79 2.08Zm-5.56-1.88c.28.58.53 1.21.74 1.88h-3.48c.2-.67.45-1.31.74-1.88.29-.57.62-1.11 1-1.63.38.51.72 1.06 1 1.63Zm-4.92 1.88H5.23c.48-.81 1.08-1.51 1.79-2.08.64-.51 1.38-.91 2.19-1.17-.24.41-.45.84-.65 1.3-.27.63-.5 1.28-.68 1.95Z"/>
  </symbol>
  <symbol viewBox="0 0 25 25" id="document_certificate-fill">
    <path d="M17.2234 2.42383H4.52344V22.4238H20.5234V5.62383L17.2234 2.42383ZM12.0234 16.0238H7.52344V14.7238H12.0234V16.0238ZM15.5234 20.4238C14.4234 20.4238 13.5234 19.5238 13.5234 18.4238C13.5234 17.3238 14.4234 16.4238 15.5234 16.4238C16.6234 16.4238 17.5234 17.3238 17.5234 18.4238C17.5234 19.5238 16.6234 20.4238 15.5234 20.4238ZM17.5234 13.1238H7.52344V11.8238H17.5234V13.1238ZM17.5234 10.0238H7.52344V8.72383H17.5234V10.0238ZM16.4234 6.72383V3.72383L19.4234 6.72383H16.4234Z"/>
  </symbol>
  <symbol viewBox="0 0 24 24" id="history">
    <path d="M7.2 5.20031C10.9 1.90031 16.6 2.30031 19.9 6.00031C23.2 9.80031 22.8 15.5003 19.2 18.7003C17.4 20.3003 15.3 21.0003 13.2 21.0003C10.7 21.0003 8.2 20.0003 6.4 18.0003L7.5 17.0003C10.3 20.1003 15 20.4003 18.1 17.6003C21.2 14.8003 21.5 10.1003 18.8 7.00031C16 3.90031 11.3 3.60031 8.2 6.40031C6.6 7.80031 5.7 9.90031 5.7 12.0003L7.8 9.80031L8.9 10.9003L4.9 14.9003L1 10.9003L2 9.90031L4.2 11.9003C4.2 9.40031 5.3 6.90031 7.2 5.20031ZM12 12.7V7.5H13.5V12.1L16.7 15.3L15.7 16.4L12 12.7Z"/>
  </symbol>
  <symbol viewBox="0 0 25 24" id="folder">
    <path d="M12.2523 6L10.2523 4H2.65234V21H22.6523V6H12.2523ZM9.65234 5.5L11.6523 7.5H21.1523V10.5H4.15234V5.5H9.65234ZM4.15234 19.5V12H21.1523V19.5H4.15234Z"/>
  </symbol>
  <symbol viewBox="0 0 25 24" id="mail-fill">
    <path d="M12.5234 12.5L2.52344 4.5H22.5234L12.5234 12.5ZM2.52344 6.2002L12.5234 14.2002L22.5234 6.2002V19.5002H2.52344V6.2002Z"/>
  </symbol>
  <symbol viewBox="0 0 24 24" id="play-fill">
    <path d="M17.875 13.5151C19.0417 12.8415 19.0417 11.1576 17.875 10.484L8.875 5.28785C7.70833 4.61427 6.25 5.45624 6.25 6.80339V17.1957C6.25 18.5428 7.70833 19.3848 8.875 18.7112L17.875 13.5151Z"/>
  </symbol>
  <symbol viewBox="0 0 24 24" id="menu">
    <path d="M21 7H3V5H21V7Z"/>
    <path d="M21 13H3V11H21V13Z"/>
    <path d="M3 19H21V17H3V19Z"/>
  </symbol>
  <symbol viewBox="0 0 24 24" id="arrow-line_right">
    <path d="M18 5L18 19H20V5L18 5Z"/>
    <path d="M17.9142 12.0001L10.2071 19.7072L8.79286 18.293L14.0858 13H2.5L2.5 11L14.0857 11L8.79286 5.70718L10.2071 4.29297L17.9142 12.0001Z"/>
  </symbol>
  <symbol viewBox="0 0 24 24" id="arrow-line_left-fill">
    <path d="M5.75 11.9823L5.75 4.50019L3.25 4.50019L3.25 19.5002H5.75L5.75 12.0179L14.1161 20.384L15.8838 18.6162L10.5178 13.2502H22V10.7502L10.5176 10.7502L15.8838 5.38398L14.1161 3.61621L5.75 11.9823Z"/>
  </symbol>
  <symbol viewBox="0 0 24 24" id="heart">
    <path d="M12 20.3254L10.9 19.3254C9.23333 17.8254 7.85833 16.5337 6.775 15.4504C5.69167 14.3671 4.83333 13.4044 4.2 12.5624C3.56667 11.7211 3.125 10.9544 2.875 10.2624C2.625 9.57106 2.5 8.86706 2.5 8.15039C2.5 6.73372 2.97933 5.54606 3.938 4.58739C4.896 3.62939 6.08333 3.15039 7.5 3.15039C8.36667 3.15039 9.19167 3.35439 9.975 3.76239C10.7583 4.17106 11.4333 4.75872 12 5.52539C12.5667 4.75872 13.2417 4.17106 14.025 3.76239C14.8083 3.35439 15.6333 3.15039 16.5 3.15039C17.9167 3.15039 19.104 3.62939 20.062 4.58739C21.0207 5.54606 21.5 6.73372 21.5 8.15039C21.5 8.86706 21.375 9.57106 21.125 10.2624C20.875 10.9544 20.4333 11.7211 19.8 12.5624C19.1667 13.4044 18.3083 14.3671 17.225 15.4504C16.1417 16.5337 14.7667 17.8254 13.1 19.3254L12 20.3254ZM12 18.3004C13.6 16.8671 14.9167 15.6337 15.95 14.6004C16.9833 13.5671 17.8 12.6711 18.4 11.9124C19 11.1544 19.4167 10.4837 19.65 9.90039C19.8833 9.31706 20 8.73372 20 8.15039C20 7.15039 19.6667 6.31706 19 5.65039C18.3333 4.98372 17.5 4.65039 16.5 4.65039C15.7167 4.65039 14.9873 4.87539 14.312 5.32539C13.6373 5.77539 13.1083 6.40039 12.725 7.20039H11.275C10.875 6.38372 10.3417 5.75439 9.675 5.31239C9.00833 4.87106 8.28333 4.65039 7.5 4.65039C6.5 4.65039 5.66667 4.98372 5 5.65039C4.33333 6.31706 4 7.15039 4 8.15039C4 8.73372 4.11667 9.31706 4.35 9.90039C4.58333 10.4837 5 11.1544 5.6 11.9124C6.2 12.6711 7.01667 13.5627 8.05 14.5874C9.08333 15.6127 10.4 16.8504 12 18.3004Z"/>
  </symbol>
  <symbol  viewBox="0 0 24 24" id="arrow_drop_down">
  <path d="m7 10 5 5 5-5z"/>
  </symbol>
  <symbol viewBox="0 0 24 24" id="arrow_drop_up">
  <path d="m7 14 5-5 5 5z"/>
  </symbol>
  <symbol viewBox="0 0 24 24" id="chevron-line_left"><path d="m18.707 4.207-1.414-1.414L8.086 12l9.207 9.207 1.414-1.414L10.914 12l7.793-7.793ZM8 3H6v18h2V3Z"/></symbol>
  <symbol viewBox="0 0 24 24" id="chevron-line_left-fill"><path d="m20.152 3.883-1.768-1.768L8.5 12V2.5h-3v19h3V12l9.884 9.883 1.768-1.768L12.035 12l8.117-8.116Z"/></symbol>
  <symbol viewBox="0 0 24 24" id="chevron-line_right"><path d="M5.29 4.207 13.081 12l-7.793 7.793 1.414 1.414L15.91 12 6.703 2.793 5.29 4.207ZM17.999 3h-2v18h2V3Z"/></symbol>
  <symbol viewBox="0 0 24 24" id="chevron-line_right-fill"><path d="m3.852 3.883 8.116 8.116-8.116 8.116 1.767 1.768 9.883-9.882v9.498h3v-19h-3v9.498L5.619 2.115 3.852 3.883Z"/></symbol>
</svg>

