<svg viewBox="0 0 24 24" xmlns="http://www.w3.org/2000/svg">
<path fill="#fff" d="M22 12.0371C22 6.51426 17.5228 2.03711 12 2.03711C6.47715 2.03711 2 6.51426 2 12.0371C2 16.7269 5.22862 20.662 9.58423 21.7426V15.093H7.52214V12.0371H9.58423V10.7204C9.58423 7.31668 11.1246 5.73907 14.4661 5.73907C15.0997 5.73907 16.1928 5.86329 16.64 5.98751V8.75765C16.404 8.73281 15.9941 8.72039 15.4848 8.72039C13.845 8.72039 13.2115 9.3415 13.2115 10.9564V12.0371H16.4779L15.9167 15.093H13.2115V21.9639C18.1629 21.3658 22 17.1498 22 12.0371Z"/>
</svg>
