<svg viewBox="0 0 24 24" xmlns="http://www.w3.org/2000/svg">
<path fill="#fff" d="M8.47965 3.55945C7.57525 3.60212 6.95764 3.74645 6.41772 3.95861C5.85893 4.17638 5.38531 4.46861 4.91407 4.94155C4.44283 5.41449 4.15264 5.88845 3.9364 6.44809C3.72713 6.9892 3.58535 7.60732 3.5454 8.51223C3.50545 9.41714 3.49661 9.70801 3.50103 12.0163C3.50545 14.3245 3.51565 14.6139 3.55951 15.5206C3.60269 16.4249 3.74651 17.0423 3.95867 17.5824C4.17678 18.1412 4.46867 18.6146 4.94178 19.0861C5.41489 19.5575 5.88851 19.847 6.44951 20.0636C6.99011 20.2725 7.6084 20.4149 8.51314 20.4546C9.41788 20.4942 9.70909 20.5033 12.0167 20.4989C14.3243 20.4945 14.6148 20.4843 15.5214 20.4413C16.428 20.3983 17.0422 20.2534 17.5825 20.0423C18.1413 19.8237 18.6151 19.5323 19.0861 19.059C19.5572 18.5857 19.8472 18.1114 20.0633 17.5515C20.2727 17.0109 20.415 16.3926 20.4543 15.4885C20.4939 14.5812 20.5032 14.2915 20.4988 11.9836C20.4944 9.67571 20.484 9.38637 20.441 8.47993C20.398 7.57349 20.254 6.95792 20.042 6.41749C19.8236 5.8587 19.532 5.38559 19.0591 4.91384C18.5862 4.44209 18.1115 4.15224 17.5517 3.93668C17.0108 3.72741 16.3928 3.58478 15.4881 3.54568C14.5833 3.50658 14.2921 3.49655 11.9837 3.50097C9.67526 3.50539 9.38626 3.51525 8.47965 3.55945ZM8.57893 18.9254C7.75018 18.8894 7.30019 18.7517 7.00031 18.6364C6.60319 18.4834 6.32031 18.2984 6.02145 18.0025C5.72259 17.7065 5.53899 17.4226 5.38395 17.0263C5.2675 16.7265 5.12725 16.277 5.08849 15.4482C5.04633 14.5525 5.03749 14.2836 5.03256 12.0142C5.02763 9.7449 5.0363 9.4763 5.07557 8.58023C5.11093 7.75216 5.24948 7.30166 5.36457 7.00195C5.51757 6.60432 5.70185 6.32195 5.9985 6.02326C6.29515 5.72457 6.5782 5.54063 6.97481 5.38559C7.27435 5.26863 7.72383 5.12957 8.55224 5.09013C9.44865 5.04763 9.71725 5.03913 11.9862 5.0342C14.2552 5.02927 14.5245 5.03777 15.4213 5.07721C16.2493 5.11325 16.7 5.25044 16.9994 5.36621C17.3967 5.51921 17.6794 5.70298 17.9781 6.00014C18.2768 6.2973 18.4609 6.57933 18.6159 6.97679C18.733 7.27548 18.8721 7.72479 18.9112 8.55371C18.9539 9.45012 18.9636 9.71889 18.9676 11.9877C18.9717 14.2565 18.9637 14.526 18.9245 15.4217C18.8882 16.2505 18.7509 16.7006 18.6355 17.0008C18.4825 17.3978 18.298 17.6808 18.0012 17.9794C17.7044 18.2779 17.4217 18.4618 17.0249 18.6169C16.7257 18.7336 16.2757 18.873 15.448 18.9125C14.5515 18.9546 14.2829 18.9635 12.0131 18.9684C9.74326 18.9733 9.47551 18.9642 8.5791 18.9254M15.5083 7.45704C15.5086 7.65879 15.5688 7.85591 15.6812 8.02347C15.7935 8.19102 15.9531 8.32149 16.1396 8.39837C16.3261 8.47525 16.5313 8.49509 16.7291 8.45538C16.9269 8.41566 17.1085 8.31818 17.2509 8.17526C17.3933 8.03234 17.4901 7.8504 17.5291 7.65245C17.5681 7.4545 17.5475 7.24944 17.4699 7.06319C17.3923 6.87695 17.2613 6.71789 17.0933 6.60613C16.9254 6.49437 16.728 6.43493 16.5263 6.43534C16.2558 6.43588 15.9966 6.54381 15.8057 6.73541C15.6148 6.92701 15.5079 7.18658 15.5083 7.45704ZM7.6356 12.0084C7.64036 14.419 9.59808 16.3688 12.0082 16.3642C14.4183 16.3596 16.3694 14.402 16.3648 11.9914C16.3602 9.58085 14.4019 7.63061 11.9915 7.63537C9.58108 7.64013 7.63101 9.59819 7.6356 12.0084ZM9.16662 12.0054C9.16552 11.445 9.33061 10.8969 9.64102 10.4303C9.95144 9.96374 10.3932 9.5997 10.9105 9.38422C11.4278 9.16875 11.9974 9.11151 12.5473 9.21975C13.0971 9.32799 13.6025 9.59684 13.9995 9.99231C14.3966 10.3878 14.6674 10.8921 14.7779 11.4415C14.8883 11.9909 14.8333 12.5607 14.6199 13.0789C14.4064 13.597 14.0442 14.0403 13.5788 14.3525C13.1135 14.6648 12.566 14.8321 12.0056 14.8332C11.6335 14.8339 11.2649 14.7614 10.9209 14.6197C10.5768 14.478 10.264 14.2699 10.0004 14.0074C9.73674 13.7448 9.52741 13.4328 9.38436 13.0893C9.2413 12.7458 9.16732 12.3775 9.16662 12.0054Z"/>
</svg>
