<svg viewBox="0 0 25 25" xmlns="http://www.w3.org/2000/svg">
<path fill="#fff" d="M17.2234 2.42383H4.52344V22.4238H20.5234V5.62383L17.2234 2.42383ZM6.02344 20.9238V3.92383H16.5234V6.42383H19.0234V20.9238H6.02344ZM17.0234 7.92383H8.02344V9.42383H17.0234V7.92383ZM8.02344 10.9238H17.0234V12.4238H8.02344V10.9238ZM12.5234 13.9238H8.02344V15.4238H12.5234V13.9238ZM17.5234 17.4238C17.5234 18.5284 16.628 19.4238 15.5234 19.4238C14.4189 19.4238 13.5234 18.5284 13.5234 17.4238C13.5234 16.3193 14.4189 15.4238 15.5234 15.4238C16.628 15.4238 17.5234 16.3193 17.5234 17.4238Z"/>
</svg>
