<svg viewBox="0 0 24 24" xmlns="http://www.w3.org/2000/svg">
<path fill="#fff" d="M12 20.3254L10.9 19.3254C9.23333 17.8254 7.85833 16.5337 6.775 15.4504C5.69167 14.3671 4.83333 13.4044 4.2 12.5624C3.56667 11.7211 3.125 10.9544 2.875 10.2624C2.625 9.57106 2.5 8.86706 2.5 8.15039C2.5 6.73372 2.97933 5.54606 3.938 4.58739C4.896 3.62939 6.08333 3.15039 7.5 3.15039C8.36667 3.15039 9.19167 3.35439 9.975 3.76239C10.7583 4.17106 11.4333 4.75872 12 5.52539C12.5667 4.75872 13.2417 4.17106 14.025 3.76239C14.8083 3.35439 15.6333 3.15039 16.5 3.15039C17.9167 3.15039 19.104 3.62939 20.062 4.58739C21.0207 5.54606 21.5 6.73372 21.5 8.15039C21.5 8.86706 21.375 9.57106 21.125 10.2624C20.875 10.9544 20.4333 11.7211 19.8 12.5624C19.1667 13.4044 18.3083 14.3671 17.225 15.4504C16.1417 16.5337 14.7667 17.8254 13.1 19.3254L12 20.3254ZM12 18.3004C13.6 16.8671 14.9167 15.6337 15.95 14.6004C16.9833 13.5671 17.8 12.6711 18.4 11.9124C19 11.1544 19.4167 10.4837 19.65 9.90039C19.8833 9.31706 20 8.73372 20 8.15039C20 7.15039 19.6667 6.31706 19 5.65039C18.3333 4.98372 17.5 4.65039 16.5 4.65039C15.7167 4.65039 14.9873 4.87539 14.312 5.32539C13.6373 5.77539 13.1083 6.40039 12.725 7.20039H11.275C10.875 6.38372 10.3417 5.75439 9.675 5.31239C9.00833 4.87106 8.28333 4.65039 7.5 4.65039C6.5 4.65039 5.66667 4.98372 5 5.65039C4.33333 6.31706 4 7.15039 4 8.15039C4 8.73372 4.11667 9.31706 4.35 9.90039C4.58333 10.4837 5 11.1544 5.6 11.9124C6.2 12.6711 7.01667 13.5627 8.05 14.5874C9.08333 15.6127 10.4 16.8504 12 18.3004Z"/>
</svg>
