<svg viewBox="0 0 24 24" xmlns="http://www.w3.org/2000/svg">
<path fill="#fff" d="M12 20.3254L10.9 19.3254C9.23333 17.8254 7.85833 16.5337 6.775 15.4504C5.69167 14.3671 4.83333 13.4044 4.2 12.5624C3.56667 11.7211 3.125 10.9544 2.875 10.2624C2.625 9.57106 2.5 8.86706 2.5 8.15039C2.5 6.73372 2.97933 5.54606 3.938 4.58739C4.896 3.62939 6.08333 3.15039 7.5 3.15039C8.36667 3.15039 9.19167 3.35439 9.975 3.76239C10.7583 4.17106 11.4333 4.75872 12 5.52539C12.5667 4.75872 13.2417 4.17106 14.025 3.76239C14.8083 3.35439 15.6333 3.15039 16.5 3.15039C17.9167 3.15039 19.104 3.62939 20.062 4.58739C21.0207 5.54606 21.5 6.73372 21.5 8.15039C21.5 8.86706 21.375 9.57106 21.125 10.2624C20.875 10.9544 20.4333 11.7211 19.8 12.5624C19.1667 13.4044 18.3083 14.3671 17.225 15.4504C16.1417 16.5337 14.7667 17.8254 13.1 19.3254L12 20.3254Z"/>
</svg>
