<svg viewBox="0 0 24 24" xmlns="http://www.w3.org/2000/svg">
<path fill="#fff" d="M2 12C2 17.5 6.5 22 12 22C17.5 22 22 17.5 22 12C22 6.5 17.5 2 12 2C6.5 2 2 6.5 2 12ZM3.5 12C3.5 7.3 7.3 3.5 12 3.5C16.7 3.5 20.5 7.3 20.5 12C20.5 16.7 16.7 20.5 12 20.5C7.3 20.5 3.5 16.7 3.5 12ZM13.0762 14.2501H11.0661L11.0506 14.0167C10.9449 12.432 11.5822 11.0602 12.7318 10.0151L12.7353 10.0119C13.0974 9.69506 13.2415 9.39266 13.2924 9.13855C13.3431 8.88504 13.3057 8.65688 13.2605 8.47302C13.0601 7.93121 12.4596 7.68359 11.8485 7.77247C11.2401 7.86097 10.75 8.26388 10.75 8.90008V9.15008H8.75V8.90008C8.75 6.94867 10.5839 5.43098 12.4355 5.75249C13.8905 5.91731 14.8435 6.89554 15.1422 8.06312C15.4397 9.22591 15.088 10.5724 13.9679 11.4858C13.3214 12.1373 12.9573 13.0608 13.0488 13.9752L13.0762 14.2501ZM13.25 16.5C13.25 17.1904 12.6904 17.75 12 17.75C11.3096 17.75 10.75 17.1904 10.75 16.5C10.75 15.8096 11.3096 15.25 12 15.25C12.6904 15.25 13.25 15.8096 13.25 16.5Z"/>
</svg>
