<svg viewBox="0 0 24 24" xmlns="http://www.w3.org/2000/svg">
<path fill="#fff" d="M10.95 6.95C10.65 7.25 10.5 7.55 10.5 8C10.5 8.45 10.65 8.75 10.95 9.05C11.25 9.35 11.55 9.5 12 9.5C12.45 9.5 12.75 9.35 13.05 9.05C13.35 8.75 13.5 8.45 13.5 8C13.5 7.55 13.35 7.25 13.05 6.95C12.75 6.65 12.45 6.5 12 6.5C11.55 6.5 11.25 6.65 10.95 6.95Z"/>
<path fill="#fff" d="M11 12.5V16H9.5V18H14.5V16H13V10.5H10V12.5H11Z"/>
<path fill="#fff" d="M12 22C6.5 22 2 17.5 2 12C2 6.5 6.5 2 12 2C17.5 2 22 6.5 22 12C22 17.5 17.5 22 12 22ZM4 12C4 16.3954 7.60457 20 12 20C16.3954 20 20 16.3954 20 12C20 7.60457 16.3954 4 12 4C7.60457 4 4 7.60457 4 12Z"/>
</svg>
