<svg viewBox="0 0 24 24" xmlns="http://www.w3.org/2000/svg">
<path fill="#fff" d="M16.2445 13.05L15.1195 11.925C15.2695 11.0917 15.0322 10.346 14.4075 9.688C13.7822 9.02933 13.0195 8.775 12.1195 8.925L10.9945 7.8C11.2279 7.7 11.4612 7.625 11.6945 7.575C11.9279 7.525 12.1862 7.5 12.4695 7.5C13.6029 7.5 14.5652 7.896 15.3565 8.688C16.1485 9.47933 16.5445 10.4417 16.5445 11.575C16.5445 11.8583 16.5195 12.1207 16.4695 12.362C16.4195 12.604 16.3445 12.8333 16.2445 13.05ZM19.4195 16.15L18.3195 15.125C18.9529 14.6417 19.5155 14.1123 20.0075 13.537C20.4989 12.9623 20.9195 12.3083 21.2695 11.575C20.4362 9.89167 19.2402 8.554 17.6815 7.562C16.1235 6.57067 14.3862 6.075 12.4695 6.075C11.9862 6.075 11.5112 6.10833 11.0445 6.175C10.5779 6.24167 10.1195 6.34167 9.66953 6.475L8.49453 5.3C9.12786 5.05 9.77386 4.86667 10.4325 4.75C11.0905 4.63333 11.7695 4.575 12.4695 4.575C14.8195 4.575 16.9362 5.221 18.8195 6.513C20.7029 7.80433 22.0695 9.49167 22.9195 11.575C22.5529 12.475 22.0779 13.3123 21.4945 14.087C20.9112 14.8623 20.2195 15.55 19.4195 16.15ZM20.2195 21.95L16.1945 17.925C15.6779 18.125 15.1072 18.2833 14.4825 18.4C13.8572 18.5167 13.1862 18.575 12.4695 18.575C10.1195 18.575 8.00687 17.929 6.13153 16.637C4.25687 15.3457 2.8862 13.6583 2.01953 11.575C2.3862 10.6917 2.8612 9.86667 3.44453 9.1C4.02786 8.33333 4.66953 7.675 5.36953 7.125L2.59453 4.325L3.64453 3.25L21.2945 20.9L20.2195 21.95ZM6.41953 8.175C5.8862 8.59167 5.37386 9.096 4.88253 9.688C4.39053 10.2793 3.9862 10.9083 3.66953 11.575C4.50286 13.2583 5.69853 14.5957 7.25653 15.587C8.8152 16.579 10.5529 17.075 12.4695 17.075C12.9195 17.075 13.3695 17.0373 13.8195 16.962C14.2695 16.8873 14.6529 16.8083 14.9695 16.725L13.7195 15.425C13.5362 15.4917 13.3362 15.5457 13.1195 15.587C12.9029 15.629 12.6862 15.65 12.4695 15.65C11.3362 15.65 10.3739 15.254 9.58253 14.462C8.79053 13.6707 8.39453 12.7083 8.39453 11.575C8.39453 11.375 8.41553 11.1623 8.45753 10.937C8.49886 10.7123 8.55286 10.5083 8.61953 10.325L6.41953 8.175Z"/>
</svg>
