<svg viewBox="0 0 24 24" xmlns="http://www.w3.org/2000/svg">
<path fill="#fff" d="M7.99 20.819c1.19.51 2.47.77 3.81.77 1.34 0 2.63-.26 3.81-.77a9.98 9.98 0 0 0 3.11-2.1c.88-.89 1.59-1.94 2.1-3.12.51-1.19.77-2.47.77-3.81 0-1.34-.26-2.63-.77-3.81a9.98 9.98 0 0 0-2.1-3.11 9.98 9.98 0 0 0-3.11-2.1c-2.35-1.02-5.23-1.03-7.62 0a9.91 9.91 0 0 0-3.12 2.1 9.98 9.98 0 0 0-2.1 3.11 9.573 9.573 0 0 0-.77 3.81c0 1.34.26 2.62.77 3.81a9.91 9.91 0 0 0 2.1 3.12c.89.88 1.93 1.59 3.12 2.1Zm2.8-3.2c-.28-.56-.52-1.19-.73-1.86h3.48c-.19.65-.44 1.26-.72 1.82-.28.56-.62 1.12-1.02 1.68-.4-.53-.73-1.08-1.01-1.64Zm-3.75.22a7.386 7.386 0 0 1-1.81-2.08l.01-.01h2.65a12.468 12.468 0 0 0 1.31 3.25c-.79-.25-1.51-.64-2.16-1.16Zm7.96-.1c.28-.64.52-1.3.71-1.98h2.67c-.48.81-1.09 1.51-1.81 2.08-.66.52-1.39.92-2.19 1.17.21-.39.42-.82.62-1.27Zm4.27-4.08h-3.14c.04-.26.07-.52.09-.77.03-.36.04-.73.04-1.1 0-.37-.01-.73-.04-1.1-.02-.25-.05-.51-.09-.77h3.14c.06.26.11.53.15.8.05.35.07.71.07 1.07 0 .36-.02.72-.07 1.07-.03.27-.09.54-.15.8Zm-5.24 0H9.57a12.529 12.529 0 0 1-.13-1.88 12.534 12.534 0 0 1 .13-1.88h4.46a12.534 12.534 0 0 1 .13 1.88 12.529 12.529 0 0 1-.13 1.88Zm-6.56 0H4.33c-.06-.26-.11-.53-.15-.8-.04-.35-.07-.71-.07-1.07 0-.36.02-.72.07-1.07.03-.27.09-.54.15-.8h3.14c-.04.26-.07.52-.09.77-.03.36-.04.73-.04 1.1 0 .37.01.73.04 1.1.02.25.05.51.09.77Zm10.89-5.85h-2.65c-.18-.66-.41-1.32-.68-1.95-.2-.45-.42-.89-.65-1.3a7 7 0 0 1 2.19 1.17c.71.56 1.31 1.26 1.79 2.08Zm-5.56-1.88c.28.58.53 1.21.74 1.88h-3.48c.2-.67.45-1.31.74-1.88.29-.57.62-1.11 1-1.63.38.51.72 1.06 1 1.63Zm-4.92 1.88H5.23c.48-.81 1.08-1.51 1.79-2.08.64-.51 1.38-.91 2.19-1.17-.24.41-.45.84-.65 1.3-.27.63-.5 1.28-.68 1.95Z"/>
</svg>