<svg viewBox="0 0 24 24" xmlns="http://www.w3.org/2000/svg">
<path fill="#fff" d="M16.525 14.2625C15.5417 15.7875 14.0333 17.4833 12 19.35C9.96667 17.4833 8.45833 15.7875 7.475 14.2625C6.49167 12.7375 6 11.3833 6 10.2C6 8.38333 6.57917 6.89583 7.7375 5.7375C8.89583 4.57917 10.3167 4 12 4C13.6833 4 15.1042 4.57917 16.2625 5.7375C17.4208 6.89583 18 8.38333 18 10.2C18 11.3833 17.5083 12.7375 16.525 14.2625ZM5.9875 15.6375C7.3125 17.5958 9.31667 19.7167 12 22C14.6833 19.7167 16.6875 17.5958 18.0125 15.6375C19.3375 13.6792 20 11.8667 20 10.2C20 7.7 19.1958 5.70833 17.5875 4.225C15.9792 2.74167 14.1167 2 12 2C9.88333 2 8.02083 2.74167 6.4125 4.225C4.80417 5.70833 4 7.7 4 10.2C4 11.8667 4.6625 13.6792 5.9875 15.6375ZM12 12.25C13.2426 12.25 14.25 11.2426 14.25 10C14.25 8.75736 13.2426 7.75 12 7.75C10.7574 7.75 9.75 8.75736 9.75 10C9.75 11.2426 10.7574 12.25 12 12.25Z"/>
</svg>
