<svg viewBox="0 0 24 24" xmlns="http://www.w3.org/2000/svg">
<path fill="#fff" d="M12.0136 20.85C11.6035 20.85 11.2526 20.7052 10.9609 20.4157C10.6693 20.1261 10.5234 19.7781 10.5234 19.3715C10.5234 18.9805 10.6676 18.6333 10.9559 18.33C11.2443 18.0267 11.5909 17.875 11.9958 17.875C12.4142 17.875 12.7651 18.0268 13.0484 18.3304C13.3318 18.634 13.4734 18.984 13.4734 19.3804C13.4734 19.7768 13.3327 20.1208 13.0511 20.4125C12.7695 20.7042 12.4237 20.85 12.0136 20.85ZM12.0136 13.475C11.6035 13.475 11.2526 13.3308 10.9609 13.0425C10.6693 12.7542 10.5234 12.4076 10.5234 12.0027C10.5234 11.5842 10.6676 11.2333 10.9559 10.95C11.2443 10.6667 11.5909 10.525 11.9958 10.525C12.4142 10.525 12.7651 10.6658 13.0484 10.9473C13.3318 11.2289 13.4734 11.5748 13.4734 11.9849C13.4734 12.395 13.3327 12.7458 13.0511 13.0375C12.7695 13.3292 12.4237 13.475 12.0136 13.475ZM12.0136 6.125C11.6035 6.125 11.2526 5.97769 10.9609 5.68307C10.6693 5.38846 10.5234 5.03429 10.5234 4.62057C10.5234 4.20686 10.6676 3.85417 10.9559 3.5625C11.2443 3.27083 11.5909 3.125 11.9958 3.125C12.4142 3.125 12.7651 3.27202 13.0484 3.56605C13.3318 3.86007 13.4734 4.21393 13.4734 4.62765C13.4734 5.04137 13.3327 5.39436 13.0511 5.68663C12.7695 5.97888 12.4237 6.125 12.0136 6.125Z"/>
</svg>
