<svg viewBox="0 0 25 24" xmlns="http://www.w3.org/2000/svg">
<path fill="#fff" d="M17.3953 2H6.89531C5.99531 2 5.19531 2.8 5.19531 3.8V20.3C5.19531 21.3 5.99531 22.1 6.99531 22.1H17.4953C18.4953 22.1 19.2953 21.3 19.2953 20.3V3.8C19.1953 2.8 18.3953 2 17.3953 2ZM12.7953 20.5C12.5953 20.6 12.3953 20.7 12.1953 20.7C11.9953 20.7 11.6953 20.6 11.5953 20.5C11.3953 20.3 11.1953 20.1 11.1953 19.7C11.1953 19.1 11.5953 18.7 12.1953 18.7C12.7953 18.7 13.1953 19.1 13.1953 19.7C13.1953 20.1 13.0953 20.3 12.7953 20.5ZM17.6953 17.5H6.69531V4H17.6953V17.5Z"/>
</svg>
