<svg viewBox="0 0 25 25" xmlns="http://www.w3.org/2000/svg">
<path fill="#fff" d="M19.8906 4.42383H1.89062V20.4238H22.8906V7.42383L19.8906 4.42383ZM3.39062 18.9238V5.92383H18.8906V8.42383H21.3906V18.9238H3.39062ZM7.89062 12.9238C8.99519 12.9238 9.89062 12.0284 9.89062 10.9238C9.89062 9.81926 8.99519 8.92383 7.89062 8.92383C6.78606 8.92383 5.89062 9.81926 5.89062 10.9238C5.89062 12.0284 6.78606 12.9238 7.89062 12.9238ZM11.8906 8.42383H17.3906V9.92383H11.8906V8.42383ZM18.9906 14.9238H5.89062V16.4238H18.9906V14.9238ZM11.8906 11.6235H18.9906V13.1235H11.8906V11.6235Z"/>
</svg>
