<svg viewBox="0 0 25 24" xmlns="http://www.w3.org/2000/svg">
<path fill="#fff" d="M2.26172 12C2.26172 17.5 6.76172 22 12.2617 22C17.7617 22 22.2617 17.5 22.2617 12C22.2617 6.5 17.7617 2 12.2617 2C6.76172 2 2.26172 6.5 2.26172 12ZM3.76172 12C3.76172 7.3 7.56172 3.5 12.2617 3.5C16.9617 3.5 20.7617 7.3 20.7617 12C20.7617 16.7 16.9617 20.5 12.2617 20.5C7.56172 20.5 3.76172 16.7 3.76172 12ZM12.2633 11.7L14.9633 7H16.6633L13.8633 12H16.2633V13H12.9633V14.5H16.2633V15.5H12.9633V18H11.4633V15.5H8.26328V14.5H11.4633V13H8.26328V12H10.6633L7.86328 7H9.56328L12.2633 11.7Z"/>
</svg>
